<svg id="Layer_1" data-name="Layer 1" xmlns="http://www.w3.org/2000/svg" viewBox="0 0 925.51 450.16"><defs><style>.cls-1{fill:#e94233;opacity:0.7;}.cls-2{fill:#ee7d63;}.cls-2,.cls-3,.cls-4{opacity:0.8;}.cls-3{fill:#fbe8e3;}.cls-4{fill:#f5b09c;}</style></defs><title>confetti</title><circle class="cls-1" cx="61.96" cy="30.04" r="8.53"/><circle class="cls-1" cx="379.51" cy="207.61" r="8.53"/><circle class="cls-2" cx="89.5" cy="93.47" r="8.53"/><circle class="cls-3" cx="41.61" cy="69.94" r="8.53"/><circle class="cls-3" cx="91.9" cy="84.05" r="8.53"/><circle class="cls-1" cx="92.73" cy="167.19" r="8.53"/><circle class="cls-3" cx="98.58" cy="173.31" r="8.53"/><circle class="cls-1" cx="37.81" cy="123.32" r="8.53"/><circle class="cls-1" cx="393.11" cy="364.68" r="8.53"/><circle class="cls-4" cx="10.03" cy="154.41" r="8.53"/><circle class="cls-4" cx="140.44" cy="38.57" r="8.53"/><circle class="cls-4" cx="297.67" cy="59.77" r="8.53"/><circle class="cls-1" cx="39.16" cy="185.5" r="8.53"/><circle class="cls-2" cx="95.29" cy="253.16" r="8.53"/><circle class="cls-3" cx="25.89" cy="229.61" r="8.53"/><circle class="cls-1" cx="84.81" cy="261.72" r="8.53"/><circle class="cls-2" cx="196.51" cy="178.78" r="8.53"/><circle class="cls-1" cx="186.03" cy="187.35" r="8.53"/><circle class="cls-2" cx="70.49" cy="323.24" r="8.53"/><circle class="cls-2" cx="140.44" cy="352.86" r="8.53"/><circle class="cls-3" cx="40.4" cy="302.77" r="8.53"/><circle class="cls-3" cx="236.08" cy="285.71" r="8.53"/><circle class="cls-3" cx="140.44" cy="340.31" r="8.53"/><circle class="cls-2" cx="517.05" cy="227.09" r="8.53"/><circle class="cls-3" cx="517.05" cy="214.54" r="8.53"/><circle class="cls-3" cx="160.99" cy="21.51" r="8.53"/><circle class="cls-1" cx="81.28" cy="406.71" r="8.53"/><circle class="cls-3" cx="87.13" cy="412.83" r="8.53"/><circle class="cls-1" cx="36.61" cy="356.15" r="8.53"/><circle class="cls-4" cx="10.03" cy="387.24" r="8.53"/><circle class="cls-1" cx="37.95" cy="418.33" r="8.53"/><circle class="cls-1" cx="140.44" cy="426.86" r="8.53"/><circle class="cls-1" cx="841.94" cy="51.23" r="8.53"/><circle class="cls-4" cx="850.47" cy="59.77" r="8.53"/><circle class="cls-4" cx="872.07" cy="153.88" r="8.53"/><circle class="cls-1" cx="859" cy="160.32" r="8.53"/><circle class="cls-3" cx="800.14" cy="123.63" r="8.53"/><circle class="cls-3" cx="743.83" cy="27.1" r="8.53"/><circle class="cls-2" cx="887.44" cy="98.03" r="8.53"/><circle class="cls-2" cx="760.89" cy="35.63" r="8.53"/><circle class="cls-3" cx="599.83" cy="351.89" r="8.53"/><circle class="cls-2" cx="616.89" cy="360.42" r="8.53"/><circle class="cls-2" cx="877.39" cy="27.1" r="8.53"/><circle class="cls-2" cx="582.76" cy="59.77" r="8.53"/><circle class="cls-1" cx="816.35" cy="220.82" r="8.53"/><circle class="cls-4" cx="824.88" cy="229.35" r="8.53"/><circle class="cls-2" cx="883.65" cy="199.08" r="8.53"/><circle class="cls-1" cx="863.52" cy="298.63" r="8.53"/><circle class="cls-4" cx="872.06" cy="307.16" r="8.53"/><circle class="cls-4" cx="884.39" cy="396.19" r="8.53"/><circle class="cls-1" cx="871.33" cy="402.63" r="8.53"/><circle class="cls-4" cx="844.21" cy="432.17" r="8.53"/><circle class="cls-4" cx="702.09" cy="159.88" r="8.53"/><circle class="cls-3" cx="841.94" cy="343.6" r="8.53"/><circle class="cls-3" cx="760.89" cy="307.16" r="8.53"/><circle class="cls-3" cx="786.48" cy="412.83" r="8.53"/><circle class="cls-2" cx="925.51" cy="340.34" r="8.53"/><circle class="cls-2" cx="769.42" cy="315.69" r="8.53"/><circle class="cls-2" cx="904.51" cy="269.41" r="8.53"/><circle class="cls-2" cx="791.61" cy="402.63" r="8.53"/><circle class="cls-2" cx="895.97" cy="441.39" r="8.53"/></svg>