<svg id="Layer_1" data-name="Layer 1" xmlns="http://www.w3.org/2000/svg" viewBox="0 0 500 500"><defs><style>.cls-1{fill:#f83133;}</style></defs><path class="cls-1" d="M407.4,89.4v8q-13.61.41-20.6,3a15,15,0,0,0-9.4,9.6q-2.4,7-2.4,21.8V330.2q0,14.4,2.4,21.6a14.41,14.41,0,0,0,9.4,9.6q7,2.4,20.6,3.2v8q-9.19-.8-23-1t-27.8-.2q-15.6,0-29.2.2t-22,1v-8q13.59-.8,20.6-3.2a14.41,14.41,0,0,0,9.4-9.6q2.4-7.2,2.4-21.6v-220l1.6,1.2-98,263.2H235L134.2,115V326.2q0,14.4,2.6,22.6a18,18,0,0,0,10.4,11.6q7.8,3.41,23.4,4.2v8q-7.2-.8-18.8-1t-22-.2q-10,0-20.2.2t-17,1v-8q13.61-.8,20.6-4.2t9.4-11.6q2.4-8.19,2.4-22.6V131.8q0-14.79-2.4-21.8a15,15,0,0,0-9.4-9.6q-7-2.59-20.6-3v-8q6.8.41,17,.8t20.2.4q8.8,0,18.2-.4t15.8-.8l90.8,239.2-6.8,3.2,90-241.2h18.8q14,0,27.8-.4T407.4,89.4Z"/></svg>