<svg id="Layer_1" data-name="Layer 1" xmlns="http://www.w3.org/2000/svg" viewBox="0 0 800 300"><defs><style>.cls-1{fill:#ffe5dc;}.cls-2{fill:#eda59a;}</style></defs><path class="cls-1" d="M795,5V295H5V5H795m5-5H0V300H800V0Z"/><path class="cls-2" d="M143.17,75.93a14.58,14.58,0,0,1,5.17-1,9.73,9.73,0,0,1,4.24,1,9.15,9.15,0,0,1,3.58,3.41A32.36,32.36,0,0,1,159,85.48l7.72,21.34q1.22,3.36,3,4.06c1.22.46,2.93.29,5.11-.5l.61,1.68-4.23,1.3c-1.89.6-3.72,1.21-5.48,1.85s-3.46,1.3-5.11,2l-3.73,1.58-.6-1.68c1.92-.69,3.13-1.59,3.64-2.67s.36-2.76-.45-5l-8.35-23.1a32.57,32.57,0,0,0-2-4.45,6.21,6.21,0,0,0-2.81-2.77c-1.16-.55-2.7-.47-4.62.22a9.26,9.26,0,0,0-4.86,3.93A13.62,13.62,0,0,0,135,89.88a20.16,20.16,0,0,0,1.28,7.9l6.42,17.75c.8,2.23,1.75,3.61,2.84,4.12s2.59.42,4.51-.28l.61,1.68-3.87,1.17q-2.56.8-5.2,1.75t-5.39,2.08l-4.09,1.71-.6-1.68c2.18-.79,3.6-1.75,4.24-2.89s.56-2.82-.25-5.06l-9-25q-1.29-3.6-3.2-4.86c-1.26-.83-3.07-.83-5.42,0l-.6-1.68q2.64-.68,5-1.55a37.53,37.53,0,0,0,4.34-1.88,24.29,24.29,0,0,0,3.57-2.25l3.41,9.44q.19-6,3-9.49A14.79,14.79,0,0,1,143.17,75.93Zm24.06-8.7a14.58,14.58,0,0,1,5.17-1,9.73,9.73,0,0,1,4.24,1,9.08,9.08,0,0,1,3.58,3.41,32.36,32.36,0,0,1,2.85,6.11l7.72,21.34c.8,2.24,1.82,3.59,3,4s2.93.3,5.11-.49l.61,1.68-4.23,1.3c-1.89.6-3.72,1.21-5.48,1.85s-3.46,1.3-5.11,2L181,110.07l-.6-1.68q2.88-1,3.64-2.67c.51-1.09.36-2.76-.45-5l-8.35-23.11a33,33,0,0,0-2-4.44,6.28,6.28,0,0,0-2.81-2.78q-1.74-.81-4.62.23a9.85,9.85,0,0,0-6.21,7A17.93,17.93,0,0,0,160.28,89l-2.93-7.35c.11-4.19,1.14-7.42,3.11-9.66A16.22,16.22,0,0,1,167.23,67.23Z"/><path class="cls-2" d="M224,103.74c-3.68.22-6.41-.53-8.19-2.27a10.55,10.55,0,0,1-2.95-7.19,9.69,9.69,0,0,1,1.38-6,13.79,13.79,0,0,1,4.23-4.09A38.55,38.55,0,0,1,224,81.3q2.94-1.24,5.6-2.43a18.43,18.43,0,0,0,4.31-2.56A3.86,3.86,0,0,0,235.48,73l-.32-5.26a11.33,11.33,0,0,0-1.39-5.37,5.39,5.39,0,0,0-3-2.33,11.84,11.84,0,0,0-4-.39,19.54,19.54,0,0,0-4.51.87,6.73,6.73,0,0,0-3.71,2.7,5.09,5.09,0,0,1,4.3,4.93,4.3,4.3,0,0,1-1.15,3.43,5,5,0,0,1-3.4,1.44,4.15,4.15,0,0,1-3.7-1.35,5.84,5.84,0,0,1-1.37-3.45,5.54,5.54,0,0,1,.89-3.63,13.49,13.49,0,0,1,2.65-2.71,18.32,18.32,0,0,1,4.9-2.64,23.27,23.27,0,0,1,6.94-1.41,19.19,19.19,0,0,1,6,.45,10.67,10.67,0,0,1,4.21,2.08A9.54,9.54,0,0,1,242,65.13a31.89,31.89,0,0,1,1.11,7l1.43,23.59a5.86,5.86,0,0,0,.78,3,2.17,2.17,0,0,0,2.09.85,4.07,4.07,0,0,0,2.05-.63,10.47,10.47,0,0,0,1.66-1.38l1,1.39a28.53,28.53,0,0,1-3.25,2.45,8.89,8.89,0,0,1-4.28,1.15c-2.94.18-4.93-.46-6-1.93a9.71,9.71,0,0,1-1.76-5.17,14.38,14.38,0,0,1-5.79,6.4A17.52,17.52,0,0,1,224,103.74Zm3.52-3.62a9.58,9.58,0,0,0,4.92-1.79,14.36,14.36,0,0,0,4.28-5.24l-1-16.63a8.62,8.62,0,0,1-3.77,3.21q-2.59,1.26-5.36,2.75a15,15,0,0,0-4.67,3.86,9.26,9.26,0,0,0-1.64,6.53c.16,2.6.92,4.5,2.3,5.69A6.62,6.62,0,0,0,227.5,100.12Z"/><path class="cls-2" d="M280.74,108.93l-5.08,6.1a15.15,15.15,0,0,1-5.35,4.49,7.41,7.41,0,0,1-3.62.63,13.83,13.83,0,0,1-3.37-.64,7.1,7.1,0,0,1-2.59-1.49,4.78,4.78,0,0,1-1.43-2.31,4.88,4.88,0,0,1,.15-2.86,4.5,4.5,0,0,1,2.17-2.73,4.37,4.37,0,0,1,3.53-.12,4.76,4.76,0,0,1,2.58,1.93,3.61,3.61,0,0,1,.27,3.23,4,4,0,0,1-1.4,2,4.8,4.8,0,0,1-2,.86.76.76,0,0,0,.26.18l.2.06a6,6,0,0,0,4.37-.2,13,13,0,0,0,4.58-3.8l5.4-6.53Zm32.45-35.77-.54,1.61a5.07,5.07,0,0,0-3.27.43,11.8,11.8,0,0,0-3.85,3.47l-24.79,30.26-1.37-.46L276.45,67.8c-.32-2.44-.91-4-1.75-4.84a6.37,6.37,0,0,0-2.23-1.5l.57-1.7c1.13.56,2.32,1.09,3.58,1.6s2.65,1,4.16,1.52q2.49.84,5.33,1.6c1.89.51,3.66,1,5.31,1.42l-.56,1.69a22.28,22.28,0,0,0-3.69-.92,2.43,2.43,0,0,0-2.54,1q-.87,1.28-.63,5.12l1.71,27.9h-.53l17.2-21c1.92-2.35,2.66-4.19,2.21-5.54s-2.06-2.6-4.84-3.76l.54-1.62c1.38.52,2.53,1,3.45,1.33s2,.76,3.24,1.17,2.36.76,3.38,1Z"/><path class="cls-2" d="M316.84,128.42q-4.33-3.43-4.58-7.16a10.51,10.51,0,0,1,2.6-7.32,9.6,9.6,0,0,1,5-3.55,13.61,13.61,0,0,1,5.87-.22,39.06,39.06,0,0,1,6.08,1.56c2,.69,4,1.34,5.79,1.93a18.65,18.65,0,0,0,4.93,1,3.82,3.82,0,0,0,3.37-1.45l3.27-4.13a11.16,11.16,0,0,0,2.55-4.92,5.33,5.33,0,0,0-.68-3.73,11.69,11.69,0,0,0-2.73-3,18.85,18.85,0,0,0-3.94-2.36,6.77,6.77,0,0,0-4.56-.47,5.1,5.1,0,0,1-.09,6.54,4.31,4.31,0,0,1-3.15,1.79,5,5,0,0,1-3.5-1.2,4.19,4.19,0,0,1-1.85-3.47,5.82,5.82,0,0,1,1.29-3.48,5.45,5.45,0,0,1,3.08-2.11,13.54,13.54,0,0,1,3.79-.26,18.59,18.59,0,0,1,5.41,1.31,23,23,0,0,1,6.1,3.59,19.21,19.21,0,0,1,4.17,4.32,10.73,10.73,0,0,1,1.74,4.37,9.54,9.54,0,0,1-.82,5.69,31.18,31.18,0,0,1-3.82,5.92l-14.67,18.52a5.9,5.9,0,0,0-1.41,2.74,2.17,2.17,0,0,0,1,2,4.1,4.1,0,0,0,1.95.89,10.19,10.19,0,0,0,2.16.09l-.17,1.71a27.19,27.19,0,0,1-4.06-.35,8.91,8.91,0,0,1-4-2q-3.46-2.75-3.17-5.44a9.59,9.59,0,0,1,2.14-5,14.4,14.4,0,0,1-8.58.91A17.59,17.59,0,0,1,316.84,128.42Zm5-.35a9.53,9.53,0,0,0,4.85,2,14.16,14.16,0,0,0,6.69-1.05l10.35-13a8.58,8.58,0,0,1-4.95-.13Q336,115,333,114.26a15.1,15.1,0,0,0-6.05-.24,9.29,9.29,0,0,0-5.59,3.77q-2.43,3.06-2.08,5.78A6.65,6.65,0,0,0,321.88,128.07Z"/><path class="cls-2" d="M413.38,157.25l-25.85,26.19q-2.5,2.55-2.34,4.5t2.64,4.4l-1.25,1.27c-.65-.72-1.64-1.79-3-3.23s-2.71-2.84-4.12-4.24-2.79-2.69-4.26-4-2.57-2.31-3.3-3l1.26-1.27q2.47,2.45,4.43,2.59t4.46-2.41l18.69-18.94q2.69-2.72,3-5t-2.34-4.88l1.25-1.27q1.76,2.1,3.57,3.88a36.08,36.08,0,0,0,3.57,3.11A24.68,24.68,0,0,0,413.38,157.25Zm11.12-17.57a5.25,5.25,0,0,1,1.59,3.84,5.34,5.34,0,0,1-5.37,5.44,5.41,5.41,0,1,1,3.78-9.28Z"/><path class="cls-2" d="M441.91,181.83a13.7,13.7,0,0,1,4,4.33,16.73,16.73,0,0,1,1.59,3.71q.88,3.51,4.55-.44l1.57,1.17c-1,1.2-2.22,2.67-3.57,4.39s-3.11,4.06-5.3,7l-1.57-1.16a27.26,27.26,0,0,0,2.24-6,12,12,0,0,0,0-6.08,9.52,9.52,0,0,0-3.85-5.22,7.49,7.49,0,0,0-5-1.63,6,6,0,0,0-4.51,2.74,6.64,6.64,0,0,0-1.38,4.43,17.3,17.3,0,0,0,1.19,5.11q1,2.73,2.26,5.95a57.88,57.88,0,0,1,2.84,10,11.21,11.21,0,0,1-2.33,8.86,10.35,10.35,0,0,1-5.53,4,12.7,12.7,0,0,1-6.65.06,18.62,18.62,0,0,1-6.58-3.18,19.76,19.76,0,0,1-2.66-2.34,18,18,0,0,1-2-2.61,16,16,0,0,1-.79-1.86c-.24-.67-.46-1.36-.64-2.06a1,1,0,0,0-1.26-.88,5.62,5.62,0,0,0-2.51,1.69l-1.58-1.17c1.17-1.39,2.56-3.11,4.15-5.17s3.68-4.83,6.24-8.29l1.57,1.16a49.6,49.6,0,0,0-3.59,7.71,11.54,11.54,0,0,0-.51,6.55,10.11,10.11,0,0,0,4.14,5.55,8.71,8.71,0,0,0,5.13,1.57q3.07.06,5.76-3.56a7.76,7.76,0,0,0,1.45-6.54,54.84,54.84,0,0,0-2.55-8.13c-.86-2.26-1.63-4.44-2.29-6.55a17.79,17.79,0,0,1-.85-6.14,11.74,11.74,0,0,1,7.32-9.75,10.2,10.2,0,0,1,5.85-.12A16.79,16.79,0,0,1,441.91,181.83Z"/><path class="cls-2" d="M512.6,188.45l-3.25,58.65c-.13,2.38.2,4,1,4.91s2.22,1.4,4.26,1.51l-.1,1.78c-.9-.1-2.24-.25-4-.43s-3.57-.33-5.38-.43-3.88-.17-5.86-.2l-4.43,0,.1-1.78c2.32.13,4-.21,5-1s1.62-2.38,1.75-4.75l2.69-48.47c.14-2.54-.21-4.45-1-5.71s-2.5-2-5-2.11l.1-1.78q2.7.4,5.25.54a37,37,0,0,0,4.72,0A24.24,24.24,0,0,0,512.6,188.45Zm25.72,24.33-.09,1.7a10.24,10.24,0,0,0-4.05.92,14.25,14.25,0,0,0-3.81,2.64l-12.66,11.9,1.32-2.31,14.58,22.52a18.06,18.06,0,0,0,2.59,3.21,6.18,6.18,0,0,0,3.11,1.53l-.1,1.78c-.62-.09-1.59-.21-2.92-.37s-2.64-.28-3.94-.35c-1.75-.1-3.54-.15-5.35-.17s-3.18,0-4.09,0L523,254a2.93,2.93,0,0,0,2.43-.72c.48-.54.43-1.22-.15-2.05l-9-14.8a9.41,9.41,0,0,0-2.77-3.13,9.19,9.19,0,0,0-3.73-1l.09-1.69a14.64,14.64,0,0,0,4.48-.91,10.9,10.9,0,0,0,3.36-2.24l6.64-6.18c1.91-1.77,2.9-3.2,3-4.31a2.46,2.46,0,0,0-1.61-2.47,12,12,0,0,0-4.5-1l.1-1.7,4.95.49c1.84.18,3.37.31,4.62.38,1,0,1.9.09,2.8.11s1.76,0,2.56,0S537.75,212.81,538.32,212.78Z"/><path class="cls-2" d="M570.07,208l5.08,36.45q.5,3.54,2.14,4.59t5.1.58l.25,1.77-4.37.39c-1.94.19-3.9.42-5.86.69s-3.84.58-5.79.94-3.41.63-4.35.82l-.25-1.77q3.45-.48,4.75-1.95t.8-5l-3.67-26.35q-.52-3.79-2.13-5.41c-1.07-1.08-2.83-1.45-5.3-1.11l-.25-1.77c1.82-.08,3.57-.24,5.26-.47a35.74,35.74,0,0,0,4.63-.95A24.06,24.06,0,0,0,570.07,208Zm-7.19-19.51a5.41,5.41,0,0,1,5.07,8.65,5.44,5.44,0,0,1-9.7-2.51,5.52,5.52,0,0,1,4.63-6.14Z"/><path class="cls-2" d="M618.15,193.81a15,15,0,0,1,5.32-1.27,9.82,9.82,0,0,1,4.24.82,9.71,9.71,0,0,1,3.75,3.06,28,28,0,0,1,3.25,6.1l8.65,21q1.35,3.3,3.22,3.91t5.08-.72l.68,1.65-4.17,1.49c-1.86.68-3.66,1.37-5.39,2.09s-3.4,1.44-5,2.2-2.84,1.34-3.65,1.74l-.68-1.65c1.88-.78,3.06-1.72,3.52-2.83s.24-2.77-.67-5l-9.36-22.71a25.67,25.67,0,0,0-2.24-4.32,6.26,6.26,0,0,0-3.13-2.57,6.55,6.55,0,0,0-4.72.48,10.19,10.19,0,0,0-6.27,7.41,18.06,18.06,0,0,0,1.16,11.42l7.19,17.45q1.37,3.3,3,4t4.49-.47l.68,1.65c-.86.29-2.13.74-3.81,1.34s-3.39,1.26-5.12,2-3.49,1.49-5.29,2.32l-4,1.88-.68-1.65c2.15-.88,3.52-1.91,4.11-3.07s.44-2.85-.47-5L601.7,211.9q-1.46-3.54-3.41-4.71t-5.41.25l-.68-1.65q2.61-.79,5-1.77a37.3,37.3,0,0,0,4.25-2.07,24.52,24.52,0,0,0,3.47-2.4l3.82,9.27q-.15-6.18,2.64-9.77A16.48,16.48,0,0,1,618.15,193.81Z"/><path class="cls-2" d="M656.42,135.79l42.72,38.29q2.85,2.55,5.15,2.73t4.73-2.55l1.33,1.2a52.35,52.35,0,0,0-3.7,3.75,40.1,40.1,0,0,0-3,3.68,18,18,0,0,0-2.06,3.7l-42.72-38.3q-2.85-2.55-5.12-2.76T649,148.11l-1.33-1.19c1.33-1.24,2.57-2.49,3.7-3.76a34.71,34.71,0,0,0,2.93-3.71A23.88,23.88,0,0,0,656.42,135.79Zm4.23,27.76a14.43,14.43,0,0,1,6-4,9.12,9.12,0,0,1,7.47.83l-.1,1.39a9.45,9.45,0,0,0-6.33-.71,10.79,10.79,0,0,0-5.15,3.32q-3.34,3.74-1.72,9.7t9.71,13.1a41.58,41.58,0,0,0,9.4,6.65,13.89,13.89,0,0,0,7.67,1.63,9.36,9.36,0,0,0,5.9-3.21,8.75,8.75,0,0,0,2-6.86q-.36-4.18-4.39-8.6l1.57,0c2.9,3.21,4.46,6.45,4.65,9.71s-1,6.34-3.61,9.25a16.65,16.65,0,0,1-8.06,5.17,15.94,15.94,0,0,1-9.72-.61,34.3,34.3,0,0,1-11-7,27.65,27.65,0,0,1-7.8-10.59,18.11,18.11,0,0,1,3.41-19.14Z"/></svg>