<svg id="Layer_1" data-name="Layer 1" xmlns="http://www.w3.org/2000/svg" viewBox="0 0 800 300"><defs><style>.cls-1{fill:#eda59a;}.cls-2{fill:#ffe5dc;}</style></defs><rect class="cls-1" y="-50" width="800" height="400"/><path class="cls-2" d="M143.17,76a14.39,14.39,0,0,1,5.17-1,9.88,9.88,0,0,1,4.24,1,9.12,9.12,0,0,1,3.58,3.4A32.49,32.49,0,0,1,159,85.52l7.72,21.34c.8,2.24,1.82,3.59,3,4s2.93.3,5.11-.49l.61,1.68c-.93.27-2.34.71-4.23,1.3s-3.72,1.21-5.48,1.85-3.46,1.29-5.11,2l-3.73,1.57-.6-1.68c1.91-.69,3.13-1.58,3.64-2.67s.36-2.75-.45-5l-8.35-23.1a33,33,0,0,0-2-4.44,6.23,6.23,0,0,0-2.81-2.78,6.07,6.07,0,0,0-4.62.23,9.28,9.28,0,0,0-4.86,3.92A13.69,13.69,0,0,0,135,89.92a20,20,0,0,0,1.28,7.9l6.42,17.74q1.2,3.36,2.84,4.12t4.51-.27l.61,1.68q-1.31.38-3.87,1.17t-5.2,1.74q-2.64,1-5.39,2.09c-1.84.75-3.2,1.32-4.09,1.7l-.6-1.68c2.18-.79,3.6-1.75,4.24-2.89s.56-2.82-.25-5.06l-9-25q-1.29-3.58-3.2-4.85t-5.42,0l-.6-1.68q2.64-.69,5-1.56a34.37,34.37,0,0,0,4.34-1.88A24.27,24.27,0,0,0,130.15,81l3.41,9.43c.13-4,1.13-7.13,3-9.48A14.72,14.72,0,0,1,143.17,76Zm24.06-8.7a14.39,14.39,0,0,1,5.17-1,9.88,9.88,0,0,1,4.24,1,9.05,9.05,0,0,1,3.58,3.4,32.49,32.49,0,0,1,2.85,6.12l7.72,21.34c.8,2.24,1.82,3.59,3,4s2.93.3,5.11-.49l.61,1.68c-.93.27-2.34.7-4.23,1.3s-3.72,1.21-5.48,1.84-3.46,1.3-5.11,2L181,110.1l-.6-1.68q2.88-1,3.64-2.67t-.45-5l-8.35-23.1a33,33,0,0,0-2-4.44,6.18,6.18,0,0,0-2.81-2.78,6.11,6.11,0,0,0-4.62.22,9.87,9.87,0,0,0-6.21,7A17.86,17.86,0,0,0,160.28,89l-2.93-7.34q.17-6.3,3.1-9.67A16.28,16.28,0,0,1,167.23,67.27Z"/><path class="cls-2" d="M224,103.77q-5.52.35-8.19-2.27a10.52,10.52,0,0,1-2.95-7.18,9.65,9.65,0,0,1,1.38-6,13.57,13.57,0,0,1,4.23-4.09,38.09,38.09,0,0,1,5.57-2.9q2.94-1.24,5.6-2.42a18.65,18.65,0,0,0,4.31-2.57A3.86,3.86,0,0,0,235.48,73l-.32-5.26a11.17,11.17,0,0,0-1.4-5.36,5.29,5.29,0,0,0-3-2.33,11.87,11.87,0,0,0-4-.39,18.55,18.55,0,0,0-4.5.87,6.76,6.76,0,0,0-3.71,2.69,5.11,5.11,0,0,1,4.3,4.93,4.32,4.32,0,0,1-1.15,3.44,5,5,0,0,1-3.4,1.44,4.18,4.18,0,0,1-3.71-1.35,5.89,5.89,0,0,1-1.36-3.45,5.48,5.48,0,0,1,.89-3.63,13.53,13.53,0,0,1,2.65-2.72,18.9,18.9,0,0,1,4.9-2.64,23.59,23.59,0,0,1,6.94-1.4,19.52,19.52,0,0,1,6,.44,10.68,10.68,0,0,1,4.21,2.09A9.5,9.5,0,0,1,242,65.17a31.69,31.69,0,0,1,1.11,7l1.43,23.58a5.9,5.9,0,0,0,.78,3,2.19,2.19,0,0,0,2.09.85,4.07,4.07,0,0,0,2.05-.64,9.88,9.88,0,0,0,1.66-1.37l1,1.38a27.55,27.55,0,0,1-3.25,2.46,9,9,0,0,1-4.28,1.15c-2.94.18-4.93-.47-6-1.93a9.74,9.74,0,0,1-1.76-5.18,14.38,14.38,0,0,1-5.79,6.4A17.36,17.36,0,0,1,224,103.77Zm3.52-3.62a9.58,9.58,0,0,0,4.92-1.79,14.2,14.2,0,0,0,4.28-5.24l-1-16.63a8.49,8.49,0,0,1-3.77,3.21c-1.73.85-3.52,1.76-5.36,2.76a15,15,0,0,0-4.67,3.86,9.26,9.26,0,0,0-1.64,6.53c.16,2.6.92,4.5,2.3,5.69A6.66,6.66,0,0,0,227.5,100.15Z"/><path class="cls-2" d="M280.74,109l-5.08,6.1a15.15,15.15,0,0,1-5.35,4.49,7.19,7.19,0,0,1-3.62.63,14.34,14.34,0,0,1-3.37-.63,7,7,0,0,1-2.59-1.49,4.69,4.69,0,0,1-1.28-5.18,4.5,4.5,0,0,1,2.17-2.73,4.41,4.41,0,0,1,3.53-.12,4.78,4.78,0,0,1,2.58,1.94,3.6,3.6,0,0,1,.27,3.23,4,4,0,0,1-1.4,2,4.93,4.93,0,0,1-2,.86.61.61,0,0,0,.26.17l.2.07a6,6,0,0,0,4.37-.2,13.06,13.06,0,0,0,4.58-3.8l5.4-6.53Zm32.45-35.77-.54,1.61a5.1,5.1,0,0,0-3.28.43,11.9,11.9,0,0,0-3.84,3.47L280.74,109l-1.37-.46-2.92-40.66Q276,64.18,274.7,63a6.57,6.57,0,0,0-2.23-1.51L273,59.8c1.12.55,2.32,1.09,3.58,1.6s2.65,1,4.16,1.52c1.66.55,3.44,1.09,5.33,1.6l5.31,1.41-.56,1.69a21.45,21.45,0,0,0-3.69-.91,2.42,2.42,0,0,0-2.54,1q-.87,1.28-.63,5.12l1.71,27.9h-.53l17.2-21c1.92-2.34,2.66-4.19,2.21-5.53s-2.06-2.6-4.84-3.77l.54-1.61c1.38.52,2.53,1,3.45,1.33s2,.76,3.24,1.17,2.36.76,3.38,1Z"/><path class="cls-2" d="M316.84,128.45q-4.33-3.43-4.58-7.15a10.51,10.51,0,0,1,2.6-7.32,9.55,9.55,0,0,1,5-3.55,13.6,13.6,0,0,1,5.87-.23,38,38,0,0,1,6.08,1.57q3,1,5.79,1.93a19.06,19.06,0,0,0,4.93,1,3.87,3.87,0,0,0,3.37-1.45l3.27-4.13a11.24,11.24,0,0,0,2.55-4.93,5.34,5.34,0,0,0-.68-3.73,12,12,0,0,0-2.73-3,19.57,19.57,0,0,0-3.94-2.36,6.83,6.83,0,0,0-4.56-.47,5.11,5.11,0,0,1-.09,6.55A4.34,4.34,0,0,1,336.6,103a5,5,0,0,1-3.5-1.2,4.17,4.17,0,0,1-1.85-3.48,5.87,5.87,0,0,1,1.29-3.48,5.52,5.52,0,0,1,3.08-2.11,13.51,13.51,0,0,1,3.78-.25,18.53,18.53,0,0,1,5.42,1.3,23.32,23.32,0,0,1,6.1,3.59,19.23,19.23,0,0,1,4.17,4.33,10.67,10.67,0,0,1,1.74,4.37,9.55,9.55,0,0,1-.82,5.69,31.82,31.82,0,0,1-3.82,5.92l-14.67,18.52a5.87,5.87,0,0,0-1.41,2.73,2.18,2.18,0,0,0,1,2,4.1,4.1,0,0,0,1.95.89,10.21,10.21,0,0,0,2.16.08l-.17,1.72a28.59,28.59,0,0,1-4.06-.35,9,9,0,0,1-4-2c-2.31-1.83-3.37-3.65-3.18-5.44a9.72,9.72,0,0,1,2.14-5,14.28,14.28,0,0,1-8.57.9A17.3,17.3,0,0,1,316.84,128.45Zm5-.34a9.71,9.71,0,0,0,4.85,1.95,14.42,14.42,0,0,0,6.69-1.05L343.76,116a8.54,8.54,0,0,1-4.94-.12c-1.86-.53-3.8-1-5.84-1.53a15,15,0,0,0-6-.24,9.27,9.27,0,0,0-5.59,3.76c-1.62,2.05-2.31,4-2.08,5.78A6.67,6.67,0,0,0,321.88,128.11Z"/><path class="cls-2" d="M413.38,157.28l-25.85,26.2Q385,186,385.19,188t2.64,4.4l-1.25,1.27c-.65-.71-1.64-1.79-3-3.22s-2.71-2.85-4.12-4.24-2.79-2.7-4.26-4-2.57-2.32-3.3-3l1.26-1.27q2.47,2.44,4.43,2.58t4.46-2.4l18.69-18.94q2.69-2.73,3-5t-2.34-4.88l1.25-1.27c1.17,1.39,2.36,2.69,3.57,3.88a36,36,0,0,0,3.57,3.1A23.85,23.85,0,0,0,413.38,157.28Zm11.12-17.56a5.51,5.51,0,1,1-3.86-1.54A5.21,5.21,0,0,1,424.5,139.72Z"/><path class="cls-2" d="M441.91,181.87a13.68,13.68,0,0,1,4,4.32,17,17,0,0,1,1.59,3.72q.88,3.51,4.55-.44l1.57,1.16q-1.55,1.81-3.57,4.39t-5.3,7l-1.57-1.17a27,27,0,0,0,2.24-5.95,12,12,0,0,0,0-6.08,9.58,9.58,0,0,0-3.85-5.23,7.48,7.48,0,0,0-5-1.62,6,6,0,0,0-4.51,2.74,6.62,6.62,0,0,0-1.38,4.43,17.31,17.31,0,0,0,1.19,5.1c.7,1.83,1.45,3.81,2.26,6a57.64,57.64,0,0,1,2.84,10,11.18,11.18,0,0,1-2.33,8.85,10.32,10.32,0,0,1-5.53,4,12.8,12.8,0,0,1-6.65.05,18.62,18.62,0,0,1-6.58-3.18,20.44,20.44,0,0,1-2.66-2.33,17.5,17.5,0,0,1-2-2.62,15.13,15.13,0,0,1-.79-1.85c-.24-.68-.46-1.36-.64-2.07a1,1,0,0,0-1.26-.87A5.67,5.67,0,0,0,406,212l-1.58-1.16c1.17-1.39,2.56-3.12,4.15-5.18s3.68-4.82,6.24-8.29l1.57,1.17a49.11,49.11,0,0,0-3.59,7.7,11.55,11.55,0,0,0-.51,6.55,10,10,0,0,0,4.14,5.55,8.71,8.71,0,0,0,5.13,1.58c2.05,0,4-1.15,5.76-3.57a7.75,7.75,0,0,0,1.45-6.54,55.12,55.12,0,0,0-2.55-8.12c-.86-2.26-1.63-4.45-2.29-6.56a17.73,17.73,0,0,1-.85-6.13,11.78,11.78,0,0,1,7.32-9.76,10.29,10.29,0,0,1,5.85-.11A16.61,16.61,0,0,1,441.91,181.87Z"/><path class="cls-2" d="M521.84,210.71a20.17,20.17,0,0,1,5.22,1,15.35,15.35,0,0,1,4.47,2.29,9.69,9.69,0,0,1,2.81,3.1,6.84,6.84,0,0,1,.81,3.66,4.7,4.7,0,0,1-1.47,3.45,4.41,4.41,0,0,1-3.3,1.05,5.12,5.12,0,0,1-3.2-1.29,3.75,3.75,0,0,1-1.22-3.21,4.53,4.53,0,0,1,1.23-3.08,4.77,4.77,0,0,1,2.59-1.39,6.37,6.37,0,0,0-2.86-2.72,10.89,10.89,0,0,0-4.57-1.28,9.71,9.71,0,0,0-4.3.78,11.08,11.08,0,0,0-4.1,3.13,18.73,18.73,0,0,0-3.24,6.21,38.33,38.33,0,0,0-1.67,10,34.16,34.16,0,0,0,1,12,13.2,13.2,0,0,0,4.1,6.57,10.42,10.42,0,0,0,6,2.25,13.4,13.4,0,0,0,6.82-1.57,14.34,14.34,0,0,0,6-6.47l1.58.68a20,20,0,0,1-3.11,5.32,15.64,15.64,0,0,1-5.35,4.25,15.48,15.48,0,0,1-7.82,1.35,17.28,17.28,0,0,1-9.35-3.26,18.94,18.94,0,0,1-6.31-8.14,26.81,26.81,0,0,1-1.83-12.15,28.55,28.55,0,0,1,3.2-12.12,20.06,20.06,0,0,1,7.47-7.92A18.1,18.1,0,0,1,521.84,210.71Z"/><path class="cls-2" d="M591,204.25l6.3,35c.46,2.51,1.25,4.28,2.39,5.31s2.9,1.33,5.3.9l.32,1.76c-1.76.14-3.51.37-5.24.68a44.77,44.77,0,0,0-4.59,1.09,17.45,17.45,0,0,0-3.89,1.65l-1.78-9.87q-1.12,5.82-4.51,8.8a15.17,15.17,0,0,1-7.4,3.71,14.42,14.42,0,0,1-5.26.09,9.72,9.72,0,0,1-4-1.7,9.12,9.12,0,0,1-3-3.95,32.27,32.27,0,0,1-1.77-6.51l-3.79-21q-.68-3.76-2.34-5.33t-5.34-.89l-.32-1.76c1.81-.15,3.56-.38,5.23-.68A35.81,35.81,0,0,0,562,210.4a24.19,24.19,0,0,0,3.9-1.61l5.93,32.88a32.52,32.52,0,0,0,1.19,4.7,6.27,6.27,0,0,0,2.31,3.21c1.05.74,2.58.92,4.59.56a9.79,9.79,0,0,0,7.32-5.86A18.09,18.09,0,0,0,588.43,233l-3.12-17.31q-.67-3.77-2.34-5.33t-5.34-.89l-.32-1.76c1.81-.15,3.56-.38,5.23-.68a35.81,35.81,0,0,0,4.59-1.13A24.19,24.19,0,0,0,591,204.25Z"/><path class="cls-2" d="M618,179.5l6.3,12.72,11.27-5.59.76,1.53L625,193.74l14.61,29.47c1.18,2.39,2.45,3.85,3.79,4.39a5,5,0,0,0,4.29-.33,5.73,5.73,0,0,0,3-3.83c.5-1.79.42-4.37-.22-7.72l1.71-.37a19.37,19.37,0,0,1,.69,9c-.49,2.78-2.28,4.93-5.38,6.47a13.72,13.72,0,0,1-4.59,1.47,10,10,0,0,1-3.89-.4,10.51,10.51,0,0,1-4.4-3,29.32,29.32,0,0,1-3.86-6.16l-12.65-25.51-7.31,3.63-.75-1.53,7.31-3.62L611.63,184c1.25-.68,2.41-1.39,3.51-2.12A16.28,16.28,0,0,0,618,179.5Z"/><path class="cls-2" d="M661.26,162.91q5.09-5.47,11.29-5.45T685.77,164l-20.44,22-1.24-1L679,168.89a27.91,27.91,0,0,0-6.09-4.74,13.26,13.26,0,0,0-6-1.89,5.94,5.94,0,0,0-4.77,2q-2.67,2.87-1.86,7.74T667,183.1l.43,0c.54.67,1.17,1.36,1.88,2.1s1.43,1.45,2.18,2.15a24.21,24.21,0,0,0,8.55,5.4,15.24,15.24,0,0,0,8,.74,10.56,10.56,0,0,0,5.84-3.1,13.82,13.82,0,0,0,3.44-6.44q.82-3.63-1.15-8.49l1.66-.79a17.62,17.62,0,0,1,1.89,5.95,16,16,0,0,1-4.38,13.45,19,19,0,0,1-9.21,5.77,18.11,18.11,0,0,1-10.27-.38,26.51,26.51,0,0,1-10-6.08,31.64,31.64,0,0,1-7.8-10.51,18.94,18.94,0,0,1-1.53-10.59A17.65,17.65,0,0,1,661.26,162.91Z"/></svg>