<svg id="Layer_1" data-name="Layer 1" xmlns="http://www.w3.org/2000/svg" viewBox="0 0 800 300"><defs><style>.cls-1{fill:#f83133;}.cls-2{fill:#fff;}</style></defs><rect class="cls-1" y="-50" width="800" height="400"/><path class="cls-2" d="M123.75,75.92a14.58,14.58,0,0,1,5.17-1,9.78,9.78,0,0,1,4.25,1,9.15,9.15,0,0,1,3.58,3.41,32.4,32.4,0,0,1,2.84,6.11l7.72,21.34q1.22,3.36,3,4c1.23.47,2.93.3,5.11-.49l.61,1.68-4.23,1.3c-1.89.6-3.72,1.21-5.48,1.85s-3.46,1.3-5.11,2-2.89,1.22-3.72,1.58l-.61-1.68q2.88-1,3.64-2.67c.51-1.09.36-2.76-.45-5l-8.35-23.11a31.76,31.76,0,0,0-2-4.44A6.28,6.28,0,0,0,127,79.09q-1.74-.81-4.62.23a9.26,9.26,0,0,0-4.86,3.93,13.62,13.62,0,0,0-1.94,6.62,20,20,0,0,0,1.27,7.9l6.42,17.74q1.22,3.36,2.84,4.13c1.09.51,2.6.42,4.51-.28l.61,1.68-3.87,1.17c-1.7.53-3.44,1.11-5.2,1.75s-3.55,1.33-5.39,2.08-3.2,1.33-4.08,1.71l-.61-1.68c2.18-.79,3.6-1.75,4.24-2.89s.56-2.83-.25-5.06l-9-25q-1.31-3.6-3.21-4.86c-1.26-.83-3.07-.83-5.41,0l-.61-1.68c1.76-.46,3.44-1,5-1.55a35.9,35.9,0,0,0,4.34-1.89,23.46,23.46,0,0,0,3.57-2.24l3.41,9.44q.19-6,3-9.49A14.85,14.85,0,0,1,123.75,75.92Zm24.06-8.7a14.58,14.58,0,0,1,5.17-1,9.78,9.78,0,0,1,4.25,1,9.15,9.15,0,0,1,3.58,3.41,32.4,32.4,0,0,1,2.84,6.11l7.72,21.34q1.22,3.36,3,4c1.23.47,2.93.3,5.11-.49l.61,1.68-4.23,1.3c-1.89.6-3.72,1.21-5.48,1.85s-3.46,1.3-5.11,2-2.89,1.22-3.72,1.58l-.61-1.68q2.88-1,3.64-2.68c.51-1.08.36-2.75-.45-5l-8.35-23.1a31.76,31.76,0,0,0-2-4.44A6.28,6.28,0,0,0,151,70.39a6.07,6.07,0,0,0-4.62.23,9.86,9.86,0,0,0-6.21,6.94A18,18,0,0,0,140.86,89l-2.93-7.35q.16-6.3,3.11-9.66A16.34,16.34,0,0,1,147.81,67.22Z"/><path class="cls-2" d="M204.56,103.73c-3.68.22-6.41-.53-8.18-2.27a10.45,10.45,0,0,1-2.95-7.19,9.55,9.55,0,0,1,1.38-6A13.53,13.53,0,0,1,199,84.18a38.55,38.55,0,0,1,5.57-2.89q2.94-1.25,5.6-2.43a18.73,18.73,0,0,0,4.32-2.56A3.87,3.87,0,0,0,216.06,73l-.32-5.26a11.3,11.3,0,0,0-1.39-5.37,5.31,5.31,0,0,0-3-2.33,11.81,11.81,0,0,0-4-.39,19.54,19.54,0,0,0-4.51.87,6.8,6.8,0,0,0-3.71,2.69,5.11,5.11,0,0,1,4.31,4.94,4.3,4.3,0,0,1-1.16,3.43,4.93,4.93,0,0,1-3.4,1.44,4.16,4.16,0,0,1-3.7-1.35,5.83,5.83,0,0,1-1.36-3.45,5.48,5.48,0,0,1,.88-3.63,13.49,13.49,0,0,1,2.65-2.71,18.32,18.32,0,0,1,4.9-2.64,23.27,23.27,0,0,1,7-1.41,19.15,19.15,0,0,1,6,.45,10.71,10.71,0,0,1,4.22,2.08,9.59,9.59,0,0,1,3.18,4.79,31.79,31.79,0,0,1,1.11,7l1.43,23.59a6,6,0,0,0,.78,3,2.19,2.19,0,0,0,2.1.85,4.06,4.06,0,0,0,2-.63,10.53,10.53,0,0,0,1.67-1.38l1,1.39a29.49,29.49,0,0,1-3.26,2.45,9,9,0,0,1-4.27,1.15q-4.41.27-6-1.93a9.71,9.71,0,0,1-1.76-5.17q-2.44,4.66-5.78,6.4A17.61,17.61,0,0,1,204.56,103.73Zm3.53-3.62A9.67,9.67,0,0,0,213,98.32a14.36,14.36,0,0,0,4.28-5.24l-1-16.63a8.65,8.65,0,0,1-3.76,3.21q-2.61,1.26-5.37,2.75a15,15,0,0,0-4.66,3.86,9.21,9.21,0,0,0-1.65,6.53q.24,3.9,2.3,5.69A6.67,6.67,0,0,0,208.09,100.11Z"/><path class="cls-2" d="M261.32,108.92l-5.08,6.1a15,15,0,0,1-5.35,4.48,7.27,7.27,0,0,1-3.61.64,13.91,13.91,0,0,1-3.38-.64,7.1,7.1,0,0,1-2.59-1.49,4.72,4.72,0,0,1-1.28-5.17,4.54,4.54,0,0,1,2.17-2.73,4.37,4.37,0,0,1,3.53-.12,4.72,4.72,0,0,1,2.58,1.93,3.61,3.61,0,0,1,.27,3.23,3.92,3.92,0,0,1-1.4,2,4.74,4.74,0,0,1-2,.86.76.76,0,0,0,.26.18l.2.06a6,6,0,0,0,4.37-.2,12.87,12.87,0,0,0,4.58-3.8l5.41-6.53Zm32.45-35.77-.53,1.61a5.1,5.1,0,0,0-3.28.43,11.86,11.86,0,0,0-3.85,3.46l-24.79,30.27-1.37-.46L257,67.79q-.48-3.66-1.74-4.84a6.49,6.49,0,0,0-2.24-1.5l.57-1.7c1.13.56,2.32,1.09,3.59,1.6s2.64,1,4.15,1.52c1.67.56,3.44,1.09,5.34,1.6l5.3,1.41-.56,1.7a21.46,21.46,0,0,0-3.68-.92,2.42,2.42,0,0,0-2.54,1c-.59.85-.8,2.55-.64,5.12l1.72,27.9h-.54l17.21-21c1.91-2.35,2.65-4.2,2.2-5.54s-2.06-2.6-4.83-3.76l.53-1.62c1.38.52,2.53,1,3.46,1.33s2,.76,3.24,1.17,2.36.76,3.37,1Z"/><path class="cls-2" d="M297.42,128.4c-2.89-2.28-4.42-4.67-4.58-7.15a10.51,10.51,0,0,1,2.6-7.32,9.64,9.64,0,0,1,5-3.55,13.65,13.65,0,0,1,5.88-.22,38.52,38.52,0,0,1,6.08,1.56c2,.69,3.94,1.34,5.79,1.93a18.51,18.51,0,0,0,4.92,1,3.82,3.82,0,0,0,3.37-1.45l3.27-4.13a11.16,11.16,0,0,0,2.55-4.92,5.31,5.31,0,0,0-.68-3.74,11.84,11.84,0,0,0-2.73-3A19,19,0,0,0,325,95.05a6.74,6.74,0,0,0-4.57-.47,5.07,5.07,0,0,1,1.15,3.07,5.16,5.16,0,0,1-1.24,3.47,4.29,4.29,0,0,1-3.15,1.79,5,5,0,0,1-3.49-1.2,4.17,4.17,0,0,1-1.86-3.47,5.82,5.82,0,0,1,1.29-3.48,5.44,5.44,0,0,1,3.09-2.11,13.47,13.47,0,0,1,3.78-.26,18.52,18.52,0,0,1,5.41,1.31,23.25,23.25,0,0,1,6.11,3.59,19.36,19.36,0,0,1,4.16,4.32,10.75,10.75,0,0,1,1.75,4.37,9.54,9.54,0,0,1-.83,5.69,31.18,31.18,0,0,1-3.82,5.92L318.1,136.11a5.9,5.9,0,0,0-1.41,2.74,2.21,2.21,0,0,0,1,2,4.1,4.1,0,0,0,1.95.89,10.19,10.19,0,0,0,2.16.09l-.17,1.71a27.19,27.19,0,0,1-4.06-.35,8.91,8.91,0,0,1-3.95-2q-3.47-2.74-3.17-5.44a9.59,9.59,0,0,1,2.14-5,14.4,14.4,0,0,1-8.58.91A17.54,17.54,0,0,1,297.42,128.4Zm5-.34a9.53,9.53,0,0,0,4.86,1.95,14.27,14.27,0,0,0,6.68-1l10.35-13.06a8.57,8.57,0,0,1-5-.12q-2.79-.8-5.83-1.53a15.1,15.1,0,0,0-6.05-.24,9.24,9.24,0,0,0-5.58,3.77c-1.62,2-2.32,4-2.09,5.77A6.65,6.65,0,0,0,302.46,128.06Z"/><path class="cls-2" d="M394,157.24l-25.85,26.19q-2.5,2.55-2.34,4.5c.11,1.3,1,2.76,2.64,4.4l-1.25,1.27c-.65-.72-1.64-1.79-3-3.23s-2.7-2.85-4.11-4.24-2.8-2.69-4.27-4-2.57-2.31-3.29-2.95l1.25-1.27q2.48,2.44,4.43,2.58c1.31.1,2.79-.71,4.47-2.4l18.68-18.94q2.68-2.72,3-5T382,149.26l1.25-1.27c1.17,1.39,2.36,2.69,3.57,3.88A36.08,36.08,0,0,0,390.4,155,24.68,24.68,0,0,0,394,157.24Zm11.12-17.57a5.51,5.51,0,1,1-3.85-1.54A5.23,5.23,0,0,1,405.08,139.67Z"/><path class="cls-2" d="M422.49,181.82a13.7,13.7,0,0,1,4,4.33,15.82,15.82,0,0,1,1.59,3.71q.89,3.51,4.55-.44l1.57,1.17c-1,1.2-2.22,2.67-3.56,4.39s-3.11,4.06-5.3,7l-1.58-1.16a27.26,27.26,0,0,0,2.24-6,12.16,12.16,0,0,0,0-6.08,9.63,9.63,0,0,0-3.85-5.23,7.52,7.52,0,0,0-5-1.62,6,6,0,0,0-4.51,2.74,6.58,6.58,0,0,0-1.37,4.43,17.26,17.26,0,0,0,1.18,5.11q1.05,2.73,2.26,6a57,57,0,0,1,2.84,10,11.2,11.2,0,0,1-2.32,8.86,10.37,10.37,0,0,1-5.54,4,12.76,12.76,0,0,1-6.64.06,18.58,18.58,0,0,1-6.59-3.18,19.66,19.66,0,0,1-2.65-2.34,10.22,10.22,0,0,1-2.83-4.47c-.24-.67-.46-1.36-.64-2.06a1,1,0,0,0-1.26-.88,5.62,5.62,0,0,0-2.51,1.69L385,210.76c1.17-1.39,2.55-3.11,4.15-5.18s3.67-4.82,6.23-8.28l1.57,1.16a48.57,48.57,0,0,0-3.58,7.71,11.37,11.37,0,0,0-.51,6.55,10,10,0,0,0,4.14,5.55,8.65,8.65,0,0,0,5.12,1.57c2.06,0,4-1.15,5.76-3.57a7.73,7.73,0,0,0,1.45-6.53,54.84,54.84,0,0,0-2.55-8.13q-1.29-3.39-2.28-6.56a17.71,17.71,0,0,1-.86-6.13,11.79,11.79,0,0,1,7.32-9.75,10.21,10.21,0,0,1,5.85-.12A16.79,16.79,0,0,1,422.49,181.82Z"/><path class="cls-2" d="M502.42,210.67a20.32,20.32,0,0,1,5.23,1,15.31,15.31,0,0,1,4.46,2.3,9.45,9.45,0,0,1,2.81,3.09,6.8,6.8,0,0,1,.81,3.67,4.63,4.63,0,0,1-1.47,3.45,4.47,4.47,0,0,1-3.29,1,5.12,5.12,0,0,1-3.21-1.29,3.77,3.77,0,0,1-1.22-3.22,4.49,4.49,0,0,1,1.24-3.08,4.83,4.83,0,0,1,2.59-1.39,6.43,6.43,0,0,0-2.87-2.71,10.75,10.75,0,0,0-4.57-1.28,9.71,9.71,0,0,0-4.3.78,11,11,0,0,0-4.09,3.13,18.49,18.49,0,0,0-3.25,6.2,38.91,38.91,0,0,0-1.67,10q-.42,7.47,1,12a13.17,13.17,0,0,0,4.09,6.58,10.56,10.56,0,0,0,6,2.25,13.41,13.41,0,0,0,6.82-1.58,14.34,14.34,0,0,0,6-6.47l1.58.69a19.55,19.55,0,0,1-3.11,5.31,14.92,14.92,0,0,1-13.17,5.6,17.3,17.3,0,0,1-9.35-3.25,19,19,0,0,1-6.31-8.15,26.68,26.68,0,0,1-1.82-12.15A28.41,28.41,0,0,1,484.51,221,20.12,20.12,0,0,1,492,213.1,18,18,0,0,1,502.42,210.67Z"/><path class="cls-2" d="M554.13,207.09a20.09,20.09,0,0,1,10,.67,17,17,0,0,1,8.11,6.18q3.42,4.59,4.82,12.62T576.82,240a17.11,17.11,0,0,1-5.55,8.52,21.17,21.17,0,0,1-19.22,3.34,16.94,16.94,0,0,1-8.14-6.13c-2.29-3-3.89-7.22-4.83-12.58s-.83-9.86.29-13.51a16.88,16.88,0,0,1,5.58-8.56A20,20,0,0,1,554.13,207.09Zm.29,1.68q-4.77.82-7,6.3t-.24,16.7q1.95,11.22,5.86,15.58c2.6,2.92,5.5,4.09,8.68,3.54s5.51-2.64,7-6.26,1.55-9.17.25-16.65-3.26-12.69-5.87-15.63S557.61,208.21,554.42,208.77Z"/><path class="cls-2" d="M607.9,189.14a19.9,19.9,0,0,1,9.73-2.56,17,17,0,0,1,9.65,3.29q4.71,3.25,8.59,10.43t4,12.86a17,17,0,0,1-2.55,9.83,21.15,21.15,0,0,1-17.16,9.28,16.89,16.89,0,0,1-9.67-3.22q-4.69-3.23-8.57-10.4t-4-12.89a16.92,16.92,0,0,1,2.58-9.9A20,20,0,0,1,607.9,189.14Zm.8,1.49q-4.26,2.31-4.6,8.19t5.07,15.91q5.43,10,10.51,12.92t9.36.59q4.26-2.3,4.63-8.15t-5.06-15.87q-5.42-10-10.53-13T608.7,190.63Z"/><path class="cls-2" d="M629.17,144.45l44.14,38.74c1.79,1.57,3.33,2.27,4.62,2.08s2.71-1.15,4.24-2.89l1.34,1.17c-.67.69-1.69,1.74-3,3.15s-2.69,2.87-4,4.36-2.53,2.94-3.77,4.49L669.94,199l-1.34-1.18c1.54-1.74,2.31-3.27,2.32-4.57s-.87-2.75-2.66-4.32l-36.47-32c-1.92-1.69-3.63-2.59-5.15-2.71s-3.09.75-4.73,2.63l-1.35-1.18c1.33-1.25,2.55-2.52,3.67-3.79a34.56,34.56,0,0,0,2.89-3.75A24,24,0,0,0,629.17,144.45Z"/></svg>