<svg id="Layer_1" data-name="Layer 1" xmlns="http://www.w3.org/2000/svg" viewBox="0 0 640.36 226.89"><defs><style>.cls-1,.cls-2{fill:#fff;stroke:#fff;}.cls-1{stroke-miterlimit:10;}.cls-2{stroke-linecap:round;stroke-linejoin:round;stroke-width:3px;}</style></defs><title>mayalogo</title><path class="cls-1" d="M49.18,77.25l4.64,7.23,1.49-9.06,4.76,7.8,1.66-8.5,1.93-.39L60.93,87.87l-4.7-7.71-1.47,9L47.25,77.64Z"/><path class="cls-1" d="M73.49,74.08l-4.71,1,.57,2.82,4.57-.92.34,1.66-4.57.92.79,3.93,4.71-1,.33,1.66L69,85.46,66.67,73.72l6.48-1.31Z"/><path class="cls-1" d="M79.41,83.37,77,71.63l1.76-.36a7.69,7.69,0,0,1,1.92-.19,2.82,2.82,0,0,1,1.31.37,3.18,3.18,0,0,1,1,1,3.56,3.56,0,0,1,.58,1.31,2.81,2.81,0,0,1-.54,2.33,2.88,2.88,0,0,1,1.7.82,3.24,3.24,0,0,1,.92,1.73,3.16,3.16,0,0,1-.5,2.52,3.28,3.28,0,0,1-1.15,1.08,7.65,7.65,0,0,1-2,.63Zm.42-7.06.55-.11a2.09,2.09,0,0,0,1.36-.73,1.69,1.69,0,0,0,.2-1.38,1.64,1.64,0,0,0-.72-1.16,2,2,0,0,0-1.46-.16l-.62.13Zm1,5,1.1-.22a2.85,2.85,0,0,0,1.67-.83,1.75,1.75,0,0,0-.5-2.58A3.06,3.06,0,0,0,81,77.61l-.89.19Z"/><path class="cls-1" d="M96.54,79.91,94.17,68.17l2.46-.5a9.23,9.23,0,0,1,2.87-.21,5.33,5.33,0,0,1,2.24.76,5.72,5.72,0,0,1,2.69,4,5.64,5.64,0,0,1-1,4.76,5.52,5.52,0,0,1-1.76,1.57,9.15,9.15,0,0,1-2.69.88Zm1.43-2,.8-.16a6.78,6.78,0,0,0,1.93-.65A4,4,0,0,0,102,76a4.07,4.07,0,0,0,.68-3.38,4.16,4.16,0,0,0-1.92-2.87,5,5,0,0,0-3.65-.38l-.79.16Z"/><path class="cls-1" d="M113.85,65.93l-4.71.95.57,2.82,4.57-.92.34,1.67-4.57.92.79,3.92,4.71-1,.33,1.67-6.48,1.31L107,65.58l6.48-1.31Z"/><path class="cls-1" d="M124.39,63.89,123.12,65a2.42,2.42,0,0,0-1-.76,2.06,2.06,0,0,0-2.17.62,1.33,1.33,0,0,0-.28,1.13c.12.57.64,1,1.56,1.13l1.27.24a5,5,0,0,1,2.37,1A3.26,3.26,0,0,1,126,70.3a3.67,3.67,0,0,1-.54,2.89A3.8,3.8,0,0,1,123,74.8a3.72,3.72,0,0,1-2.71-.39,4.29,4.29,0,0,1-1.73-2.3l1.71-.76a3,3,0,0,0,.72,1.34,2.06,2.06,0,0,0,3-.39,2,2,0,0,0,.27-1.52,2.21,2.21,0,0,0-.23-.61,1.46,1.46,0,0,0-.4-.46,2.38,2.38,0,0,0-.61-.35,5,5,0,0,0-.84-.24l-1.23-.25c-1.75-.35-2.75-1.18-3-2.49a2.9,2.9,0,0,1,.56-2.42,3.77,3.77,0,0,1,2.34-1.4A3.58,3.58,0,0,1,124.39,63.89Z"/><path class="cls-1" d="M129.81,61l2.36,11.74-1.77.36L128,61.34Z"/><path class="cls-1" d="M141.36,64.51l4.85-1,.08.38a8.18,8.18,0,0,1,.16,2.41,5.13,5.13,0,0,1-.67,2A5.42,5.42,0,0,1,142,71a5.84,5.84,0,0,1-4.58-.93,6.23,6.23,0,0,1,2.28-11.29,6.05,6.05,0,0,1,2.68,0A7.66,7.66,0,0,1,145,60.17l-1,1.46a4.37,4.37,0,0,0-3.91-1.21,4.32,4.32,0,0,0-2.87,1.91,4.37,4.37,0,0,0-.62,3.42,4.5,4.5,0,0,0,5.15,3.55A3.63,3.63,0,0,0,143.89,68a3.23,3.23,0,0,0,.73-2.37l-2.93.59Z"/><path class="cls-1" d="M151.23,68.88,148.7,56.34l10.37,7.23-1.65-8.16,1.78-.36,2.51,12.46L151.34,60.3,153,68.52Z"/><path class="cls-1" d="M170.38,54.53l-4.71.95.57,2.82,4.57-.92.34,1.66-4.57.92.79,3.93,4.71-1,.33,1.66-6.47,1.31-2.37-11.74L170,52.86Z"/><path class="cls-1" d="M179.27,58l4.64,4.27-2.17.44-4.32-4.13-.32.06,1,4.81-1.77.36-2.37-11.74,2.07-.42a5.27,5.27,0,0,1,3.54.19,3.29,3.29,0,0,1,1.66,2.34,3.36,3.36,0,0,1-.28,2.29A3.24,3.24,0,0,1,179.27,58Zm-2.48-.9.56-.11q2.52-.51,2.13-2.43c-.24-1.2-1.18-1.64-2.81-1.31l-.63.13Z"/><path class="cls-1" d="M193.34,48.16l1.77-.36,3,14.67-1.77.36Z"/><path class="cls-1" d="M210.32,57l-2.53-12.54,10.37,7.23-1.64-8.16,1.77-.35,2.51,12.45-10.36-7.21,1.66,8.23Z"/><path class="cls-1" d="M229.48,42.6l-4.71.95.57,2.82,4.57-.92.33,1.67-4.57.92.8,3.92,4.7-1,.34,1.67L225,54l-2.37-11.75,6.48-1.3Z"/><path class="cls-1" d="M233.6,40l4.64,7.23,1.5-9.07L244.49,46l1.67-8.51,1.92-.39-2.73,13.55L240.66,43l-1.47,9-7.51-11.49Z"/><path class="cls-1" d="M261.18,41.41,256,35.52l2-.42,3.63,4.16L263.42,34l2-.41L263,41.06l1,5.07-1.77.35Z"/><path class="cls-1" d="M268.36,39.08a5.89,5.89,0,0,1,1-4.63,6.15,6.15,0,0,1,4-2.66,6.06,6.06,0,0,1,4.67.93,6,6,0,0,1,2.67,4,5.89,5.89,0,0,1-.95,4.66,6.16,6.16,0,0,1-4,2.66,6.24,6.24,0,0,1-4.4-.75A5.91,5.91,0,0,1,268.36,39.08Zm1.79-.34a4.44,4.44,0,0,0,8.07,1.68,4.64,4.64,0,0,0-1.25-6.3,4.48,4.48,0,0,0-6.19,1.25A4.32,4.32,0,0,0,270.15,38.74Z"/><path class="cls-1" d="M288.58,36l4.65,4.27-2.17.44-4.32-4.13-.32.07,1,4.8-1.77.36L283.25,30l2.07-.42a5.28,5.28,0,0,1,3.54.2,3.27,3.27,0,0,1,1.66,2.34,3.4,3.4,0,0,1-.28,2.28A3.23,3.23,0,0,1,288.58,36Zm-2.47-.9.56-.11q2.52-.51,2.13-2.43c-.24-1.2-1.18-1.64-2.81-1.31l-.64.13Z"/><path class="cls-1" d="M296.9,32.14l3.62-5.61,2.37-.48-4.24,6.39,6.64,5.35-2.38.48-5.28-4.37-.29.44,1,4.86-1.77.35-2.37-11.74,1.77-.36Z"/><path class="cls-1" d="M321.22,23l.43,2.1a5,5,0,0,0-3.44-.64,4.12,4.12,0,0,0-2.79,1.91,4.48,4.48,0,0,0-.61,3.42,4.35,4.35,0,0,0,1.88,2.86,4.21,4.21,0,0,0,3.31.66,3.84,3.84,0,0,0,1.53-.63,5.42,5.42,0,0,0,.68-.56c.22-.23.45-.49.69-.79l.44,2.14a6.56,6.56,0,0,1-3,1.5,6,6,0,0,1-4.65-.89A5.94,5.94,0,0,1,313,30.17a6.14,6.14,0,0,1,.68-4.3,6,6,0,0,1,4.28-3.1A6.18,6.18,0,0,1,321.22,23Z"/><path class="cls-1" d="M326.66,21.26,329,33l-1.77.36-2.37-11.74Z"/><path class="cls-1" d="M334.62,21.39l2,10.07-1.77.36-2-10.08-2.7.55-.33-1.67L337,19.18l.34,1.66Z"/><path class="cls-1" d="M344.59,24.58l-5.18-5.9,2-.41,3.63,4.16,1.75-5.24,2-.41-2.5,7.44,1,5.08-1.78.35Z"/><path class="cls-2" d="M29,135.17a18.67,18.67,0,0,1,.43-8.57,15.5,15.5,0,0,1,1.82-4,11.91,11.91,0,0,1,2.93-3.12,5.83,5.83,0,0,1,3.4-1.31,5.4,5.4,0,0,1,3,.85,7.88,7.88,0,0,1,2.32,2.35,13.51,13.51,0,0,1,1.55,3.3,30.86,30.86,0,0,1,.48,12.15,106.63,106.63,0,0,1-3.27,15.64q3.2-5.3,6.62-10.47t7-9.7c.17-.18.61-.72,1.32-1.64a25,25,0,0,1,2.34-2.64,13.39,13.39,0,0,1,2.53-2q1.23-.72,1.74.24c.66,1.22.95,3.24.88,6.08a88.09,88.09,0,0,1-.89,9.77q-.77,5.51-2,11.53t-2.61,11.48q1.78-3.31,3.76-6.73t3.73-6.35q1.75-2.94,3.13-5.12c.91-1.45,1.59-2.5,2-3.16q2.25-3.62,4.87-7.53t5.41-7.79q2.77-3.9,5.61-7.58T92.8,114l1.52-1.68A20.56,20.56,0,0,1,96.83,110a7.12,7.12,0,0,1,2.43-1.38c.73-.22,1.21.22,1.42,1.31a9.48,9.48,0,0,1-.5,3.91,61.35,61.35,0,0,1-2.12,6.2c-.92,2.33-1.93,4.8-3,7.38s-2.21,5.07-3.3,7.44-2.07,4.49-2.94,6.35-1.53,3.27-2,4.21q-4.23,9.21-8.7,19.31a189.89,189.89,0,0,0-7.54,19.82c-.3,1-.72,2.46-1.25,4.44a30.5,30.5,0,0,0-1,6,12.53,12.53,0,0,0,.59,5.18c.54,1.45,1.75,2.13,3.64,2a5.93,5.93,0,0,0,2.65-.79,18.81,18.81,0,0,0,2.72-1.8c.89-.71,1.73-1.44,2.53-2.2S82,196,82.55,195.43c.11-.17.29-.16.53,0a.47.47,0,0,1,0,.53c-.65.62-1.4,1.32-2.24,2.08s-1.72,1.51-2.64,2.22a19.11,19.11,0,0,1-2.87,1.84,6.6,6.6,0,0,1-2.75.81,4.25,4.25,0,0,1-3.32-1A5.73,5.73,0,0,1,67.73,199a12.91,12.91,0,0,1-.2-4,37.15,37.15,0,0,1,.67-4.42c.31-1.48.65-2.87,1-4.18s.67-2.34.87-3.09a201.89,201.89,0,0,1,7.7-19.85q4.52-10.12,8.81-19.55c.21-.39.74-1.52,1.61-3.39s1.87-4.06,3-6.58,2.31-5.21,3.55-8.07,2.31-5.5,3.21-7.94a48.12,48.12,0,0,0,1.87-6.1c.35-1.62.23-2.48-.35-2.58s-1.3.4-2.39,1.32a34.18,34.18,0,0,0-3.58,3.62c-1.3,1.49-2.66,3.16-4.1,5s-2.8,3.62-4.09,5.36-2.42,3.31-3.42,4.7-1.68,2.39-2.07,2.95Q78.6,134,75.94,138T70.09,147q-3.18,5.08-6.48,10.66t-5.82,10.53c-.71,2.54-1.35,4.81-1.95,6.8s-1.1,3.55-1.51,4.69a4.19,4.19,0,0,1-.52,1.17c-.35.7-.67.87-1,.5q-.8-1.32.51-5A74.41,74.41,0,0,1,57,168q1.26-4.92,2.4-9.91c.75-3.33,1.43-6.54,2-9.62.25-1.25.55-2.88.89-4.89s.63-4.07.86-6.16a43.44,43.44,0,0,0,.23-6.09,12.93,12.93,0,0,0-.88-4.7c-.35-.36-1.06,0-2.14,1A32,32,0,0,0,57,131.29c-1.16,1.47-2.23,2.9-3.23,4.3s-1.64,2.26-1.93,2.6q-2.8,4-5.57,8.31t-5.41,8.59q-2.12,7-4.85,14.1t-5.57,13.66q-2.85,6.56-5.54,12T20.22,204c-.21.4-.6,1.11-1.17,2.14s-1.24,2.17-2,3.41-1.55,2.51-2.43,3.82a39.39,39.39,0,0,1-2.6,3.48,13.1,13.1,0,0,1-2.36,2.27c-.72.49-1.28.57-1.7.23-.6-.52-.39-2.23.63-5.11a105.54,105.54,0,0,1,4.47-10.42q2.92-6.09,6.7-13.09T27,177.49q3.5-6.26,6.19-10.82t3.41-5.86l1.76-2.89c.58-1,1.17-1.93,1.76-2.89.89-3,1.67-5.93,2.35-8.79A79.48,79.48,0,0,0,44,138.05a54.36,54.36,0,0,0,.48-7.25,22.34,22.34,0,0,0-.75-6A14.35,14.35,0,0,0,42.38,122a7.28,7.28,0,0,0-2.08-2.19,4.6,4.6,0,0,0-5.67.27,9.69,9.69,0,0,0-2.75,3,17,17,0,0,0-1.69,3.83,17.67,17.67,0,0,0-.71,4.17,16.51,16.51,0,0,0,.25,4c.06.27,0,.43-.22.47A.37.37,0,0,1,29,135.17Zm10.17,22.59Q35.86,163.4,32.61,169T26.4,180q-4,7.38-8.26,15.36T10.67,211c0,.15-.23.63-.56,1.44s-.67,1.66-1,2.57a21.73,21.73,0,0,0-.72,2.53c-.17.78-.14,1.18.08,1.21.45.12,1-.17,1.73-.88a23,23,0,0,0,2.32-2.78q1.25-1.74,2.58-3.85t2.52-4.16c.79-1.35,1.47-2.57,2-3.63s1-1.84,1.24-2.31Q22.71,197.78,25,193t4.81-10.54q2.48-5.73,4.89-12T39.19,157.76Zm16.85,14a40.67,40.67,0,0,0-2,4.84,10.59,10.59,0,0,0-.63,3.52c.18-.53.35-1.08.52-1.64s.3-1,.38-1.29q.49-1.27.87-2.61C55.47,173.63,55.74,172.69,56,171.71Z"/><path class="cls-2" d="M107.8,150.91a2.92,2.92,0,0,0-2.15-1.53,4.27,4.27,0,0,0-2.49.54,13,13,0,0,0-2.42,1.7,21.17,21.17,0,0,0-1.88,1.8,44.4,44.4,0,0,0-3.54,4.88,55.39,55.39,0,0,0-3.47,6.31,48,48,0,0,0-2.57,6.6,16,16,0,0,0-.82,5.78,3.72,3.72,0,0,0,.19,1.5,2.59,2.59,0,0,0,.86,1.15c.54.25,1.35-.14,2.42-1.16a33.29,33.29,0,0,0,3.53-4.14c1.28-1.74,2.63-3.7,4-5.89s2.73-4.26,4-6.24,2.3-3.72,3.21-5.24,1.48-2.52,1.74-3c.89-1.58,1.81-3.18,2.77-4.78s1.87-3.2,2.76-4.78c.26-.48.5-.88.72-1.21a2.7,2.7,0,0,1,.52-.58c.18-.14.34-.05.48.28a5.35,5.35,0,0,1-.26,1.38c-.2.78-.42,1.62-.67,2.51s-.47,1.72-.68,2.47-.33,1.2-.37,1.34c-.25.9-.58,2.29-1,4.17a47.59,47.59,0,0,0-.88,5.74,20.22,20.22,0,0,0,.16,5.43,4,4,0,0,0,2.08,3.25l.57.2a5.8,5.8,0,0,0,2.69-.58,13.58,13.58,0,0,0,2.7-1.65A20.35,20.35,0,0,0,122.4,165l2-2.09q2.7-3,5.15-6.15t4.78-6.4c.11-.17.28-.2.51-.1a.37.37,0,0,1,.1.51q-.75,1-2.13,2.91c-.91,1.27-2,2.68-3.19,4.23s-2.5,3.09-3.86,4.63a49,49,0,0,1-4.11,4.15,21.13,21.13,0,0,1-4,2.84,4.42,4.42,0,0,1-3.21.64,3.92,3.92,0,0,1-2.61-2.24,10.81,10.81,0,0,1-.93-4.17,27.84,27.84,0,0,1,.3-5.2c.27-1.85.6-3.67,1-5.44s.79-3.39,1.21-4.85.76-2.61,1-3.44l-2.72,4.78q-1.68,3-3.75,6.52t-4.43,7.34q-2.39,3.79-4.59,7.1t-4.26,5.82a16.54,16.54,0,0,1-3.46,3.44,2.65,2.65,0,0,1-1.53.57,1.45,1.45,0,0,1-1.11-.53,3.86,3.86,0,0,1-.67-1.24,4.22,4.22,0,0,1-.21-1.6,19.32,19.32,0,0,1,.91-5.91,44,44,0,0,1,2.59-6.76,63.31,63.31,0,0,1,3.5-6.42A36.22,36.22,0,0,1,98.36,153a20.9,20.9,0,0,1,2.16-2.18,9.71,9.71,0,0,1,2.73-1.75,5.08,5.08,0,0,1,2.79-.39,3.65,3.65,0,0,1,2.44,1.9c0,.27,0,.43-.23.47C108,151.23,107.86,151.19,107.8,150.91Z"/><path class="cls-2" d="M136.86,147.2c-.58,1-1.21,2.29-1.91,3.77s-1.33,3-1.9,4.62a32.14,32.14,0,0,0-1.3,4.7,12.68,12.68,0,0,0-.22,4,1.88,1.88,0,0,0,.75,1.39,1.51,1.51,0,0,0,1.22,0,5,5,0,0,0,1.43-.81,7.44,7.44,0,0,0,1.17-1.08,31.68,31.68,0,0,0,3.71-5.39q2-3.46,3.74-7.36c1.18-2.6,2.27-5.17,3.25-7.69s1.74-4.62,2.26-6.28c0-.15.1-.41.17-.78s.25-.5.55-.42.39.28.28.58-.2.53-.24.68q-1.94,7.38-4.22,14.88t-4.74,15q4.65-5.47,9.15-10.6a104.11,104.11,0,0,0,8.27-10.75c.18-.17.35-.21.51-.1s.28.34.1.51a118,118,0,0,1-8.24,10.64q-5.13,6-10.43,12.44c-.64,1.75-1.24,3.48-1.79,5.17s-1.15,3.39-1.8,5.08c-.48,1.5-1.2,3.53-2.14,6.09s-2,5.16-3.18,7.83a79.94,79.94,0,0,1-3.68,7.41,17,17,0,0,1-3.66,4.8q-2.2,1.71-3.65.88c-.95-.56-1.37-1.77-1.24-3.63a19.37,19.37,0,0,1,2-7.18,73,73,0,0,1,4.82-8.64q2.91-4.55,6.5-9.23t7.06-9.07q1.95-5.69,3.73-11.45t3.41-11.48c-.71,1.77-1.47,3.52-2.3,5.28l-2.27,4.84c-.37.64-.92,1.63-1.64,3a33.44,33.44,0,0,1-2.51,3.94,14.21,14.21,0,0,1-3,3.09,2.9,2.9,0,0,1-3.15.41,2.75,2.75,0,0,1-.9-1.84,10.64,10.64,0,0,1,.13-4.21,38.25,38.25,0,0,1,1.33-4.82,43.76,43.76,0,0,1,1.93-4.73,42,42,0,0,1,2.05-3.85c.11-.16.28-.19.51-.1C137,146.94,137,147.11,136.86,147.2Zm2,23.57c-2.22,2.7-4.37,5.41-6.45,8.16s-4,5.41-5.68,8a66.55,66.55,0,0,0-4.3,7.47,29.44,29.44,0,0,0-2.4,6.67,15.71,15.71,0,0,0-.18,2.32,4.19,4.19,0,0,0,.35,1.78,1.21,1.21,0,0,0,1.15.68,4.29,4.29,0,0,0,2.18-1,12,12,0,0,0,2.65-3.23q1.36-2.24,2.8-5.16t2.79-6.28c.91-2.23,1.73-4.38,2.49-6.48s1.45-4,2.08-5.81,1.14-3.21,1.5-4.27c.19-.46.36-.92.52-1.38S138.67,171.29,138.85,170.77Z"/><path class="cls-2" d="M171.58,138.35a3,3,0,0,0-2.16-1.54,4.28,4.28,0,0,0-2.49.55,12.92,12.92,0,0,0-2.42,1.69,22.41,22.41,0,0,0-1.87,1.8,44.22,44.22,0,0,0-3.55,4.89,56,56,0,0,0-3.47,6.3,49.29,49.29,0,0,0-2.57,6.6,16.25,16.25,0,0,0-.82,5.78,3.72,3.72,0,0,0,.19,1.5,2.59,2.59,0,0,0,.86,1.15c.55.25,1.35-.14,2.42-1.16a31.88,31.88,0,0,0,3.53-4.14c1.29-1.74,2.63-3.7,4-5.88s2.72-4.27,4-6.25,2.31-3.72,3.21-5.24,1.48-2.52,1.74-3c.89-1.59,1.81-3.18,2.77-4.79s1.88-3.19,2.76-4.78a13.51,13.51,0,0,1,.72-1.2,2.5,2.5,0,0,1,.52-.58c.19-.15.35-.05.48.27a5.35,5.35,0,0,1-.26,1.38c-.2.78-.42,1.62-.67,2.52s-.47,1.72-.68,2.46-.33,1.2-.37,1.35c-.24.89-.57,2.28-1,4.17a47.42,47.42,0,0,0-.88,5.73,20.2,20.2,0,0,0,.17,5.43,4,4,0,0,0,2.07,3.25l.57.21a5.67,5.67,0,0,0,2.69-.59,14,14,0,0,0,2.7-1.64,20.51,20.51,0,0,0,2.38-2.17l2-2.08c1.8-2,3.52-4,5.15-6.16s3.23-4.26,4.78-6.4a.37.37,0,0,1,.51-.1c.18.18.21.35.1.51q-.75,1-2.13,2.91c-.91,1.28-2,2.69-3.19,4.23s-2.5,3.09-3.86,4.63a47.51,47.51,0,0,1-4.11,4.15,21.18,21.18,0,0,1-3.94,2.85,4.39,4.39,0,0,1-3.22.63,4,4,0,0,1-2.61-2.24,10.77,10.77,0,0,1-.93-4.17,27.84,27.84,0,0,1,.3-5.2q.4-2.78,1-5.44t1.21-4.85c.42-1.46.76-2.6,1-3.43L175.51,137c-1.13,2-2.38,4.17-3.75,6.52s-2.86,4.8-4.44,7.34-3.11,4.91-4.59,7.1-2.89,4.14-4.26,5.83a16.45,16.45,0,0,1-3.46,3.43,2.54,2.54,0,0,1-1.53.57,1.47,1.47,0,0,1-1.11-.52,4.12,4.12,0,0,1-.67-1.25,4.66,4.66,0,0,1-.21-1.6,19.52,19.52,0,0,1,.91-5.9,44.06,44.06,0,0,1,2.59-6.77,62.09,62.09,0,0,1,3.5-6.41,36.59,36.59,0,0,1,3.64-5,21.07,21.07,0,0,1,2.17-2.18,10,10,0,0,1,2.72-1.75,5.09,5.09,0,0,1,2.79-.39,3.68,3.68,0,0,1,2.44,1.9c.05.28,0,.43-.22.47Q171.66,138.76,171.58,138.35Z"/><path class="cls-2" d="M284,84.09a8.66,8.66,0,0,0-.51-3.67,5.42,5.42,0,0,0-2.63-2.6,12.73,12.73,0,0,0-5.93-1.54A25.57,25.57,0,0,0,268,77a31.8,31.8,0,0,0-6.63,2.42A19.06,19.06,0,0,0,256.27,83a11.1,11.1,0,0,0-.85,15.54,30.75,30.75,0,0,0,6.46,5.88c2.7,1.9,5.43,3.81,8.17,5.7a77.66,77.66,0,0,1,7.38,5.76,12.65,12.65,0,0,1,4.13,6.12,14.4,14.4,0,0,1,.09,6.67,34.28,34.28,0,0,1-2.44,7.26,51.19,51.19,0,0,1-4.16,7.39q-2.46,3.66-5.14,7c-1.79,2.23-3.56,4.27-5.31,6.14s-3.32,3.42-4.69,4.68c-1.2,1.09-2.69,2.35-4.45,3.8A58.84,58.84,0,0,1,249.8,169a41.67,41.67,0,0,1-6.05,3.21,11.34,11.34,0,0,1-5.52,1c-1.72-.15-2.65-.91-2.77-2.26a10.38,10.38,0,0,1,.74-4.55,33.22,33.22,0,0,1,2.32-4.91c.92-1.59,1.6-2.72,2-3.37q2.76-4.24,6.46-8.9t7.8-9.12q4.1-4.45,8.38-8.54a108.85,108.85,0,0,1,8.34-7.21.37.37,0,1,1,.52.54,119.72,119.72,0,0,0-12.87,11.6q-6.24,6.47-11.43,13c-.28.33-.89,1.11-1.82,2.32s-2,2.65-3.12,4.32-2.29,3.45-3.4,5.34a35.56,35.56,0,0,0-2.59,5.17,8.91,8.91,0,0,0-.74,4c.11,1.11.85,1.71,2.21,1.8a12.21,12.21,0,0,0,6.4-1.42,45.23,45.23,0,0,0,7.06-4.26,80.23,80.23,0,0,0,6.53-5.31q3-2.78,4.91-4.63,1.68-1.71,4-4.39c1.56-1.79,3.11-3.76,4.67-5.9s3-4.4,4.45-6.76a43.34,43.34,0,0,0,3.42-7.09,23.92,23.92,0,0,0,1.52-6.82,10.23,10.23,0,0,0-1.26-5.85,17.09,17.09,0,0,0-4.48-5q-3.15-2.51-6.82-5t-7.24-5a34.21,34.21,0,0,1-5.9-5.15,14.19,14.19,0,0,1-3.12-5.37,11.45,11.45,0,0,1-.32-5.4,12.12,12.12,0,0,1,2.19-5,16.78,16.78,0,0,1,4.53-4.17,28,28,0,0,1,5.23-2.52,29.68,29.68,0,0,1,6.37-1.57,24.52,24.52,0,0,1,6.4,0,11,11,0,0,1,5.34,2.07,5.94,5.94,0,0,1,2.2,2.8,9.51,9.51,0,0,1,.23,3.61c0,.14-.1.23-.37.29C284,84.47,283.85,84.32,284,84.09Z"/><path class="cls-2" d="M298.22,116.68q2.5-7.71,5.49-16t6.05-15.82q3.08-7.55,6.18-13.56a45.4,45.4,0,0,1,6-9.24,11.77,11.77,0,0,1,2.88-2.31,3.8,3.8,0,0,1,3.61-.24q1.88.9,1.35,4.14a35.33,35.33,0,0,1-2.45,7.74,107.27,107.27,0,0,1-4.77,9.69c-1.9,3.44-3.8,6.72-5.7,9.81s-3.64,5.86-5.21,8.29-2.65,4.09-3.25,5c-1.55,2.22-3.18,4.6-4.9,7.17s-3.42,4.93-5.12,7.1q-1.89,6-3.47,10.86t-2.49,7.81q1.68-2.77,4.13-6.43c1.64-2.45,3.37-4.78,5.19-7a44,44,0,0,1,5.6-5.76,11.24,11.24,0,0,1,5.33-2.8c1.1-.15,1.8.16,2.09.91a5.51,5.51,0,0,1,.22,2.71,21,21,0,0,1-.74,3.28c-.34,1.12-.6,1.95-.78,2.48-.08.3-.21.73-.38,1.3a12,12,0,0,0-.39,1.77,8.53,8.53,0,0,0-.09,1.71,1.34,1.34,0,0,0,.54,1.12c.46.19,1.13-.08,2-.82a29.38,29.38,0,0,0,2.92-2.91q1.6-1.8,3.38-4.11t3.32-4.42c1-1.4,1.92-2.67,2.69-3.82s1.32-1.92,1.66-2.34c.18-.17.34-.21.51-.1s.21.35.1.51q-.9,1.35-3.05,4.42c-1.44,2-3,4.13-4.6,6.26a60.35,60.35,0,0,1-4.83,5.61q-2.39,2.45-3.75,2.49A1.25,1.25,0,0,1,312,130a8.11,8.11,0,0,1,0-3,25.58,25.58,0,0,1,.82-3.35c.35-1.09.59-1.83.73-2.21s.2-.87.39-1.51a9.17,9.17,0,0,0,.37-1.92,2.87,2.87,0,0,0-.27-1.59c-.22-.42-.68-.59-1.37-.53-1.78.28-3.73,1.43-5.84,3.43a57.65,57.65,0,0,0-6.2,7q-3,4-5.58,8c-1.71,2.67-3,4.76-3.91,6.28-.3.27-.51.28-.63,0s0-.45.17-.77.32-.85.41-1.14q1.09-3.61,2.7-8.59t3.55-10.77A17,17,0,0,1,298.22,116.68Zm.88-.39q2.16-3,4.42-6.33t4.24-6.19c.27-.4.92-1.4,1.95-3s2.25-3.48,3.65-5.7,2.9-4.67,4.49-7.35,3.12-5.39,4.6-8.11,2.78-5.34,3.92-7.82a41.08,41.08,0,0,0,2.42-6.52,7,7,0,0,0,.13-4.22c-.4-.94-1.38-1.26-2.95-1q-1.92.48-4.09,3.19a48.84,48.84,0,0,0-4.5,7q-2.34,4.27-4.74,9.84t-4.81,11.65q-2.4,6.09-4.6,12.41T299.1,116.29Z"/><path class="cls-2" d="M342.39,104.69a3,3,0,0,0-2.16-1.54,4.28,4.28,0,0,0-2.49.55,12.92,12.92,0,0,0-2.42,1.69,22.41,22.41,0,0,0-1.87,1.8,44.22,44.22,0,0,0-3.55,4.89,54.41,54.41,0,0,0-3.47,6.3,49.29,49.29,0,0,0-2.57,6.6,16,16,0,0,0-.82,5.78,3.72,3.72,0,0,0,.19,1.5,2.67,2.67,0,0,0,.86,1.16c.54.24,1.35-.15,2.42-1.17a31.88,31.88,0,0,0,3.53-4.14c1.29-1.74,2.63-3.7,4-5.88s2.72-4.27,4-6.24,2.31-3.73,3.21-5.25,1.48-2.52,1.74-3q1.33-2.39,2.77-4.78c.95-1.61,1.88-3.2,2.76-4.79a13.51,13.51,0,0,1,.72-1.2,2.3,2.3,0,0,1,.52-.58q.28-.21.48.27a5.35,5.35,0,0,1-.26,1.38c-.2.78-.42,1.62-.67,2.52s-.47,1.72-.68,2.46-.33,1.2-.37,1.35c-.25.89-.57,2.29-1,4.17a47.28,47.28,0,0,0-.88,5.74,19.74,19.74,0,0,0,.17,5.42,4,4,0,0,0,2.07,3.25l.57.21a5.69,5.69,0,0,0,2.69-.59,14,14,0,0,0,2.7-1.64,19.65,19.65,0,0,0,2.38-2.17l2-2.08q2.7-3,5.15-6.16c1.63-2.12,3.23-4.25,4.78-6.4.11-.16.28-.19.51-.1s.21.35.1.51q-.75,1-2.13,2.91c-.91,1.28-2,2.69-3.19,4.23s-2.5,3.09-3.86,4.63a47.51,47.51,0,0,1-4.11,4.15,21.18,21.18,0,0,1-3.94,2.85,4.39,4.39,0,0,1-3.22.63,3.94,3.94,0,0,1-2.61-2.24,10.76,10.76,0,0,1-.93-4.16,27.8,27.8,0,0,1,.3-5.2c.27-1.86.6-3.67,1-5.45s.79-3.39,1.21-4.85.76-2.6,1-3.43l-2.71,4.77c-1.13,2-2.38,4.17-3.75,6.52s-2.86,4.8-4.44,7.34-3.12,4.91-4.59,7.11-2.9,4.14-4.26,5.82a16.44,16.44,0,0,1-3.46,3.43,2.47,2.47,0,0,1-1.53.57,1.44,1.44,0,0,1-1.11-.52,3.91,3.91,0,0,1-.67-1.25,4.43,4.43,0,0,1-.21-1.6,19.57,19.57,0,0,1,.91-5.9,44.46,44.46,0,0,1,2.59-6.77,62.09,62.09,0,0,1,3.5-6.41,35.76,35.76,0,0,1,3.64-5,21.92,21.92,0,0,1,2.16-2.17,10.29,10.29,0,0,1,2.73-1.76,5.09,5.09,0,0,1,2.79-.39,3.68,3.68,0,0,1,2.44,1.9c.05.28,0,.43-.22.47S342.44,105,342.39,104.69Z"/><path class="cls-2" d="M370.78,102.48a36.21,36.21,0,0,0-2,3.53q-1.09,2.17-2.06,4.59a31,31,0,0,0-1.46,4.69,9.4,9.4,0,0,0-.2,3.8c.14.75.48,1.11,1,1.08a3.29,3.29,0,0,0,1.63-.64,13.09,13.09,0,0,0,1.59-1.32c.51-.49.85-.82,1-1a72.7,72.7,0,0,0,5.24-5.7q2.4-2.91,5-5.75c.29-.34.54-.5.76-.47s.28.19.2.49c-.24.9-.62,2.15-1.11,3.77s-.91,3.27-1.25,5a18.87,18.87,0,0,0-.39,4.74,3.32,3.32,0,0,0,1.54,3c.56.31,1.33,0,2.3-1a26.05,26.05,0,0,0,3.18-4c1.15-1.71,2.31-3.61,3.49-5.72s2.27-4.14,3.3-6.11,1.88-3.71,2.57-5.22,1.17-2.51,1.43-3a6.86,6.86,0,0,1,.36-.86c.19-.43.39-.86.59-1.29s.41-.82.62-1.18.38-.55.52-.58a.51.51,0,0,1,.53.27,4.75,4.75,0,0,1,.43.82,5.76,5.76,0,0,1,.3,1c.06.34.11.58.14.71a6.09,6.09,0,0,0,1.74,3.21,2.79,2.79,0,0,0,2.29.56,6.31,6.31,0,0,0,2.55-1.3,35.38,35.38,0,0,0,2.66-2.38c.24-.19.42-.19.53,0s.19.42,0,.53c-.48.45-1,1-1.67,1.5a15.3,15.3,0,0,1-2,1.45,7.88,7.88,0,0,1-2.21.91,2.92,2.92,0,0,1-2.24-.35,3.5,3.5,0,0,1-1.31-1.28,8.18,8.18,0,0,1-.76-1.71c-.19-.6-.36-1.16-.5-1.7a11.42,11.42,0,0,0-.41-1.3l0,.1c-.3.63-.85,1.81-1.63,3.56s-1.74,3.72-2.86,5.92-2.32,4.48-3.58,6.85a73.61,73.61,0,0,1-3.83,6.42,29.71,29.71,0,0,1-3.65,4.59c-1.15,1.15-2.14,1.59-3,1.33a2.73,2.73,0,0,1-2-2.37,14.29,14.29,0,0,1-.12-4.38,29.18,29.18,0,0,1,1-5c.48-1.68.89-3.09,1.24-4.22l-3.81,4.35c-1.27,1.46-2.57,2.91-3.91,4.38-.28.34-.81.92-1.56,1.74a17,17,0,0,1-2.43,2.17,6.5,6.5,0,0,1-2.53,1.19c-.81.16-1.39-.26-1.73-1.25a7.84,7.84,0,0,1,0-3.92,28.59,28.59,0,0,1,1.51-5c.68-1.72,1.42-3.37,2.2-4.94a35,35,0,0,1,2.08-3.69c.1-.24.27-.27.51-.11S370.88,102.25,370.78,102.48Z"/><path class="cls-2" d="M420.06,94.89a32.25,32.25,0,0,0,4-.51q2.61-.47,5.37-1t5.16-1.23a25.86,25.86,0,0,0,3.57-1.23.69.69,0,0,1,.55.1c.18.18.14.36-.1.55a17.4,17.4,0,0,1-3.72,1.32q-2.46.65-5.27,1.19t-5.42,1a35,35,0,0,1-4.08.54c-.2,0-.33-.08-.39-.35S419.79,95,420.06,94.89Z"/><path class="cls-2" d="M539.67,26.27a64.21,64.21,0,0,0-11.77,1.05,110.83,110.83,0,0,0-12.54,3.06Q509,32.33,502.54,35T490,40.74c1.33-.41,2.2-.33,2.59.23a1.53,1.53,0,0,1,.34,1.2,9.45,9.45,0,0,1-.27,1.59c-.14.56-.29,1.1-.47,1.63s-.31,1-.39,1.25q-3.17,9.74-6.79,19.62T477.52,85.8c.41-.44.77-.84,1.09-1.22a5.77,5.77,0,0,1,.83-.86c.43-.36,1.19-1,2.31-2s2.39-2.08,3.86-3.25,3-2.36,4.65-3.57a52.49,52.49,0,0,1,4.64-3.09,15.8,15.8,0,0,1,4-1.73c1.18-.3,2-.11,2.5.57a.89.89,0,0,1,.16.82,4.21,4.21,0,0,1-.4.92,8.23,8.23,0,0,1-.62.92c-.22.29-.39.52-.5.68a.39.39,0,0,1-.61.12c-.19-.24-.19-.42,0-.53a9.76,9.76,0,0,0,.83-1.17l.43-.77c.13-.24.15-.42.05-.54A2.37,2.37,0,0,0,498.4,71a19.46,19.46,0,0,0-3.59,1.71,45.21,45.21,0,0,0-4.21,2.84q-2.16,1.65-4.13,3.2T483,81.65c-1,.91-1.75,1.55-2.17,1.91-.72.64-1.42,1.31-2.09,2s-1.33,1.42-2,2.18l-.43,1q-1.65,4-3.56,8.55t-3.94,9q-2,4.53-4.25,8.84t-4.46,8q-.5.73-1.59,2.43a23.6,23.6,0,0,1-2.45,3.18,10.31,10.31,0,0,1-2.79,2.25,2.34,2.34,0,0,1-2.68-.16c-.84-.68-1-2-.55-3.87a32.17,32.17,0,0,1,2.8-6.8,98,98,0,0,1,5.1-8.53q3-4.58,6.27-9.08t6.37-8.52q3.14-4,5.47-6.69c.46-1.23.93-2.43,1.41-3.62s.91-2.35,1.32-3.5q.5-1.26,1.65-4.29l2.64-7q1.49-4,3.07-8.35t2.9-8.15q1.32-3.81,2.2-6.58a19.1,19.1,0,0,0,.93-3.63c.07-.72-.23-1.08-.91-1.09a6,6,0,0,0-2.28.5,23.35,23.35,0,0,0-2.47,1.18l-1.49.82a128.49,128.49,0,0,0-14.68,9.94Q463.19,59.27,456,64.28c-.24.19-.63.48-1.15.86s-.89.43-1.09.11.06-1,.84-1.91a30.51,30.51,0,0,1,2.79-2.78c1.09-1,2.17-1.84,3.24-2.65s1.76-1.36,2.07-1.63a173,173,0,0,1,16.78-10.83,198.08,198.08,0,0,1,19.93-10,150.53,150.53,0,0,1,20.77-7.27,72.55,72.55,0,0,1,19.56-2.69c.23.1.36.21.39.35C540,26.17,539.89,26.3,539.67,26.27Zm-64.5,63.17c-.67.91-1.36,1.81-2.07,2.69s-1.4,1.78-2.07,2.68c-.5.67-1.45,1.9-2.82,3.69s-2.91,3.88-4.6,6.26-3.42,4.91-5.18,7.59-3.32,5.23-4.64,7.65a40.72,40.72,0,0,0-2.93,6.4c-.62,1.86-.62,3.11,0,3.77.66.85,1.55.86,2.65,0a18.58,18.58,0,0,0,3.27-3.34,40.45,40.45,0,0,0,2.91-4.29c.88-1.48,1.44-2.46,1.7-2.93q3.84-6.9,7.24-14.68T475.17,89.44Zm3.93-43q-4.46,2.69-8.45,5.27t-7.51,5.19l-1.65,1.28c-.74.57-1.52,1.18-2.34,1.84a31.08,31.08,0,0,0-2.35,2A11.69,11.69,0,0,0,455.11,64q3.63-2.52,7.46-5.44t7.33-5.53q.83-.69,3.42-2.58T479.1,46.48Z"/><path class="cls-2" d="M532.48,67.23a3,3,0,0,0-2.16-1.54,4.28,4.28,0,0,0-2.49.55,12.92,12.92,0,0,0-2.42,1.69,24.11,24.11,0,0,0-1.87,1.8A45.63,45.63,0,0,0,520,74.62a56,56,0,0,0-3.48,6.3,49.2,49.2,0,0,0-2.56,6.6,16.05,16.05,0,0,0-.83,5.78,3.91,3.91,0,0,0,.19,1.5,2.72,2.72,0,0,0,.87,1.16c.54.24,1.35-.15,2.42-1.17a32.68,32.68,0,0,0,3.53-4.14q1.92-2.61,4-5.88t4-6.24c1.23-2,2.3-3.72,3.2-5.25s1.48-2.51,1.74-3q1.33-2.39,2.77-4.78c1-1.61,1.88-3.2,2.77-4.79.26-.47.5-.88.72-1.2a2.12,2.12,0,0,1,.52-.58c.18-.14.34,0,.48.28a5.94,5.94,0,0,1-.26,1.37c-.2.78-.43,1.62-.67,2.52s-.48,1.72-.68,2.46-.33,1.2-.37,1.35c-.25.9-.58,2.29-1,4.17a47.3,47.3,0,0,0-.89,5.74,20.56,20.56,0,0,0,.17,5.42,4,4,0,0,0,2.07,3.25l.57.21a5.71,5.71,0,0,0,2.7-.59,14.25,14.25,0,0,0,2.69-1.64,19.74,19.74,0,0,0,2.39-2.17c.72-.78,1.38-1.47,2-2.08,1.8-2,3.51-4,5.15-6.16s3.22-4.25,4.78-6.4c.11-.16.28-.19.51-.1s.21.35.1.51q-.76,1-2.13,2.91c-.92,1.28-2,2.69-3.2,4.24s-2.5,3.09-3.85,4.62A47.51,47.51,0,0,1,546.3,83a21.22,21.22,0,0,1-3.95,2.85,4.37,4.37,0,0,1-3.21.63,3.93,3.93,0,0,1-2.62-2.24,10.76,10.76,0,0,1-.92-4.16,27.8,27.8,0,0,1,.3-5.2c.27-1.86.6-3.67,1-5.45s.8-3.39,1.22-4.85.76-2.6,1-3.43c-.69,1.19-1.59,2.79-2.72,4.78s-2.38,4.16-3.75,6.51-2.85,4.8-4.44,7.34-3.11,4.91-4.59,7.11-2.89,4.14-4.25,5.82a17,17,0,0,1-3.46,3.44,2.56,2.56,0,0,1-1.53.56,1.44,1.44,0,0,1-1.11-.52,3.81,3.81,0,0,1-.67-1.25,4.2,4.2,0,0,1-.21-1.6,19.52,19.52,0,0,1,.9-5.9,46.66,46.66,0,0,1,2.59-6.77,65.22,65.22,0,0,1,3.51-6.41,35.78,35.78,0,0,1,3.63-5,22.12,22.12,0,0,1,2.17-2.17,10,10,0,0,1,2.73-1.76,5,5,0,0,1,2.78-.39,3.66,3.66,0,0,1,2.44,1.9c.06.28,0,.43-.22.47C532.68,67.54,532.54,67.5,532.48,67.23Z"/><path class="cls-2" d="M583.12,10.61A12,12,0,0,1,586,8.29a3.8,3.8,0,0,1,3.61-.23q1.88.9,1.35,4.13a34.69,34.69,0,0,1-2.45,7.75,99.57,99.57,0,0,1-4.78,9.63q-2.87,5.13-5.7,9.82c-1.89,3.12-3.62,5.89-5.2,8.28s-2.67,4-3.27,4.94c-1.46,2.27-3.07,4.68-4.82,7.26s-3.48,4.94-5.17,7.11q-1.92,5.89-3.45,10.75t-2.54,7.81c.57-1,1.39-2.37,2.44-4s2.19-3.38,3.43-5.18S562,72.76,563.33,71a35.91,35.91,0,0,1,4-4.45,11,11,0,0,1,3.76-2.43,2.69,2.69,0,0,1,3,.53A3.78,3.78,0,0,1,575.15,67a10,10,0,0,1-.13,3.1,18.31,18.31,0,0,1-.91,3.2A25.87,25.87,0,0,1,573,75.89a1.67,1.67,0,0,1,.57-.38,1,1,0,0,0,.46-.35,74.25,74.25,0,0,0,8.69-6.7,82.78,82.78,0,0,0,7.6-8,.37.37,0,0,1,.51-.1c.25.16.28.33.1.51q-3.27,3.83-6.47,7a59.57,59.57,0,0,1-7.39,6.06c-.37.29-1,.71-1.87,1.27s-1.88,1.24-3,2a23.61,23.61,0,0,1-2.34,3.17,35.13,35.13,0,0,1-3,3,22.62,22.62,0,0,1-3.32,2.51,15.5,15.5,0,0,1-3.44,1.63,2.71,2.71,0,0,1-2.15.11c-.44-.27-.23-.88.65-1.83a19.67,19.67,0,0,1,2.13-1.8c1-.76,2.15-1.57,3.4-2.41s2.52-1.7,3.84-2.56,2.5-1.64,3.56-2.35a8.18,8.18,0,0,0,.71-1.25q.3-.65.69-1.35c.19-.47.44-1.17.75-2.11a16.09,16.09,0,0,0,.65-2.89,8.54,8.54,0,0,0,0-2.64,2.05,2.05,0,0,0-1.27-1.6,3.68,3.68,0,0,0-3.24.79,22.37,22.37,0,0,0-4,3.59,56.66,56.66,0,0,0-4.19,5.33q-2.11,3-4,5.88c-1.25,1.9-2.34,3.64-3.26,5.2s-1.61,2.7-2,3.42l0-.1c-.19.46-.4.5-.62.12-.09-.13,0-.42.15-.88a2.21,2.21,0,0,0,.26-.58,2,2,0,0,1,.17-.46q1.79-5.44,4-12.34T561,60.5q2.52-7.44,5.22-15t5.51-14.23q2.82-6.71,5.73-12.1A48.33,48.33,0,0,1,583.12,10.61ZM570.59,78.27q-2,1.33-4,2.7t-3.78,2.6c-1.14.83-2.11,1.57-2.9,2.22a5.65,5.65,0,0,0-1.33,1.32,2.74,2.74,0,0,0,1.48-.29,19.36,19.36,0,0,0,1.93-1c.67-.38,1.28-.76,1.84-1.15s1-.69,1.31-.9a31.18,31.18,0,0,0,3-2.6A23.92,23.92,0,0,0,570.59,78.27Zm-10.3-13.55q2.19-2.86,4.44-6.23L569,52.2l2-2.93c1-1.55,2.25-3.45,3.64-5.7s2.89-4.72,4.48-7.4,3.13-5.37,4.61-8.07,2.8-5.28,3.93-7.77A39.92,39.92,0,0,0,590,13.81a6.9,6.9,0,0,0,.12-4.21q-.6-1.41-2.94-1-2,.39-4.11,3.09a46.53,46.53,0,0,0-4.5,7q-2.33,4.32-4.74,9.83T569,40.26q-2.4,6.14-4.61,12.41T560.29,64.72Z"/><path class="cls-2" d="M591.26,60.52c-.59,1.32-1.13,2.66-1.64,4a39.37,39.37,0,0,0-1.27,4.06,20.09,20.09,0,0,0-.59,3.72,6.37,6.37,0,0,0,.48,3,1.53,1.53,0,0,0,2.25.94,13.85,13.85,0,0,0,3.75-2.49,48.64,48.64,0,0,0,4.51-4.55q2.38-2.68,4.47-5.28t3.61-4.58c1-1.33,1.62-2.15,1.84-2.48a.37.37,0,0,1,.51-.1c.19.25.19.42,0,.53-.38.57-1.06,1.52-2,2.84S605,63,603.72,64.59s-2.71,3.29-4.21,5A54.17,54.17,0,0,1,595.08,74a17.22,17.22,0,0,1-4,2.75,2.6,2.6,0,0,1-2.93-.11A3.77,3.77,0,0,1,587,73.54a19.78,19.78,0,0,1,.56-4.45,45.19,45.19,0,0,1,1.32-4.56c.53-1.48.93-2.56,1.22-3.26.39-.85,1.05-2.18,2-4a46,46,0,0,1,3.1-5.22A22.66,22.66,0,0,1,598.7,48c1.17-1,2.23-1.3,3.19-.79a1.83,1.83,0,0,1,1.05,1.86,5.44,5.44,0,0,1-1.11,2.45,21.33,21.33,0,0,1-2.43,2.7c-1,.94-2,1.83-3.08,2.68s-2.07,1.59-3,2.23Zm.7-1.3c.87-.6,1.95-1.37,3.25-2.34a35.72,35.72,0,0,0,3.59-3,21.66,21.66,0,0,0,2.68-3.07c.69-1,.86-1.79.52-2.43a1,1,0,0,0-1.64-.53,11,11,0,0,0-2.28,1.88,23.38,23.38,0,0,0-2.18,2.66c-.66.94-1.07,1.53-1.23,1.78-.37.64-.79,1.37-1.26,2.21A32,32,0,0,0,592,59.22Z"/><path class="cls-2" d="M608.59,57c.75-1.21,1.39-2.32,1.93-3.35s1-1.89,1.45-2.61a1.63,1.63,0,0,1-.82-1.75,7.24,7.24,0,0,1,.7-2.36,7.4,7.4,0,0,1,1.4-2c.56-.57,1-.82,1.39-.75.75.21.89.94.43,2.19a29.91,29.91,0,0,1-2,4.27,10.82,10.82,0,0,0,1.33.27,3.89,3.89,0,0,1,1.12.31,1.37,1.37,0,0,1,.67.71,2.19,2.19,0,0,1-.23,1.53c-.14.38-.44,1.11-.89,2.19s-.95,2.31-1.45,3.68-1,2.79-1.34,4.24a15.87,15.87,0,0,0-.6,3.93,4.89,4.89,0,0,0,.65,2.79c.45.69,1.3.95,2.54.77a7.74,7.74,0,0,0,4.26-2.59,44,44,0,0,0,4.27-5.24q2.05-2.94,3.77-5.88T630,52.68c.17-.25.34-.24.53,0s.2.28.1.51c-.76,1.14-1.77,2.77-3,4.89s-2.6,4.19-4.07,6.21a38.83,38.83,0,0,1-4.63,5.31,6.77,6.77,0,0,1-4.76,2.21,2.73,2.73,0,0,1-3.06-2.37A13.63,13.63,0,0,1,611.4,64a40.85,40.85,0,0,1,1.9-6c.78-2,1.34-3.32,1.68-4.1a4,4,0,0,0,.47-1.63.55.55,0,0,0-.37-.56,4.85,4.85,0,0,0-1-.13,5.3,5.3,0,0,1-1.44-.3c-.41.79-.92,1.71-1.53,2.74l-2,3.47c-.12.1-.26.08-.43-.07A.31.31,0,0,1,608.59,57Zm3.77-6.68A24.22,24.22,0,0,0,614,47.19a3.35,3.35,0,0,0,.35-2.25l0-.1c-.2,0-.49.31-.85.81a10.33,10.33,0,0,0-1,1.68,6.86,6.86,0,0,0-.6,1.81C611.82,49.72,612,50.12,612.36,50.32Z"/></svg>