<svg id="Layer_1" data-name="Layer 1" xmlns="http://www.w3.org/2000/svg" viewBox="0 0 656.53 176.6"><defs><style>.cls-1,.cls-2{fill:#fff;stroke:#fff;}.cls-1{stroke-linecap:round;stroke-linejoin:round;stroke-width:3px;}.cls-2{stroke-miterlimit:10;}</style></defs><title>mayalogo</title><path class="cls-1" d="M43.64,82.94a17.86,17.86,0,0,1,.52-4.16,17.67,17.67,0,0,1,1.55-4.16,15.28,15.28,0,0,1,2.55-3.54,11.66,11.66,0,0,1,3.48-2.49A5.75,5.75,0,0,1,55.33,68a5.44,5.44,0,0,1,2.76,1.4,8,8,0,0,1,1.82,2.76,13.15,13.15,0,0,1,.88,3.53,30.94,30.94,0,0,1-1.86,12,106.9,106.9,0,0,1-6.23,14.72c2.77-3,5.62-6,8.52-9S67,87.71,70,85.21q.31-.21,1.62-1.35a24,24,0,0,1,2.8-2.14,13.29,13.29,0,0,1,2.86-1.45c.9-.32,1.46-.13,1.66.57.42,1.31.32,3.36-.3,6.13a88.4,88.4,0,0,1-2.75,9.42q-1.82,5.25-4.2,10.92t-4.78,10.77c1.59-1.94,3.25-3.91,5-5.88s3.36-3.82,4.88-5.52,2.87-3.17,4-4.42,2-2.15,2.6-2.71q2.91-3.12,6.24-6.45t6.8-6.61q3.48-3.28,7-6.35t6.91-5.67l1.82-1.36A21.08,21.08,0,0,1,115,71.29a7.33,7.33,0,0,1,2.65-.88c.76-.07,1.14.45,1.14,1.55a9.57,9.57,0,0,1-1.24,3.75,64.4,64.4,0,0,1-3.27,5.67c-1.35,2.12-2.83,4.34-4.42,6.66s-3.15,4.54-4.67,6.66l-4.11,5.67c-1.21,1.67-2.13,2.91-2.75,3.75q-5.92,8.22-12.26,17.27a192.91,192.91,0,0,0-11.22,18q-.72,1.35-2.07,4.11a31.36,31.36,0,0,0-2.13,5.67,12.42,12.42,0,0,0-.41,5.2c.24,1.53,1.3,2.43,3.17,2.7a6,6,0,0,0,2.76-.26,18.29,18.29,0,0,0,3-1.25c1-.52,2-1.08,2.91-1.67s1.75-1.09,2.45-1.51c.13-.14.31-.1.52.11A.49.49,0,0,1,85,153c-.76.48-1.63,1-2.6,1.61s-2,1.15-3,1.67a18.79,18.79,0,0,1-3.17,1.25,6.5,6.5,0,0,1-2.86.26,4.2,4.2,0,0,1-3.07-1.61,5.77,5.77,0,0,1-.94-3.12,12.83,12.83,0,0,1,.57-3.95,40.59,40.59,0,0,1,1.5-4.21c.59-1.39,1.2-2.69,1.82-3.91s1.11-2.16,1.46-2.86a201,201,0,0,1,11.37-18q6.39-9,12.41-17.48c.28-.35,1-1.35,2.24-3s2.61-3.62,4.2-5.88,3.28-4.66,5-7.23,3.33-5,4.68-7.18a47.44,47.44,0,0,0,3-5.62c.66-1.52.71-2.39.15-2.6a4.29,4.29,0,0,0-2.6.84A34.31,34.31,0,0,0,111,74.83q-2.34,1.83-5,4.11t-5,4.48q-2.39,2.19-4.26,4c-1.24,1.19-2.11,2-2.59,2.5-1,1-2.69,2.59-4.94,4.84s-4.75,4.84-7.48,7.76-5.55,6-8.42,9.21-5.45,6.29-7.74,9.21c-1.18,2.36-2.25,4.45-3.22,6.29s-1.76,3.28-2.39,4.32a4.34,4.34,0,0,1-.72,1c-.49.62-.84.73-1,.31q-.53-1.46,1.45-4.78a73,73,0,0,1,5.19-7.49c1.46-3.06,2.87-6.14,4.26-9.26s2.66-6.14,3.84-9.06c.48-1.17,1.09-2.72,1.82-4.63s1.4-3.86,2-5.87a43.37,43.37,0,0,0,1.4-5.93,13.31,13.31,0,0,0,0-4.79c-.28-.41-1-.24-2.29.53a31.6,31.6,0,0,0-4,3c-1.42,1.22-2.76,2.42-4,3.59s-2,1.91-2.39,2.19Q62,93.74,58.42,97.39t-7,7.39Q48,111.23,44,117.68T35.88,130q-4.05,5.88-7.74,10.72t-6.39,8.06c-.28.35-.8,1-1.56,1.88s-1.63,1.89-2.6,3-2,2.17-3.12,3.28a41.13,41.13,0,0,1-3.22,2.92,12.69,12.69,0,0,1-2.75,1.76c-.8.35-1.37.32-1.72-.1-.48-.62,0-2.25,1.61-4.89a107.58,107.58,0,0,1,6.39-9.36q4.05-5.42,9.09-11.55t9.66-11.61q4.62-5.46,8.16-9.42t4.47-5.09l2.28-2.5,2.29-2.5q2.18-4.16,4-8.17a79.52,79.52,0,0,0,3.06-7.75,53.38,53.38,0,0,0,1.86-7,22.56,22.56,0,0,0,.42-6,14,14,0,0,0-.79-3.07A7.12,7.12,0,0,0,57.67,70a4.78,4.78,0,0,0-2.44-1.35,4.9,4.9,0,0,0-3.18.52,9.69,9.69,0,0,0-3.27,2.39A16.79,16.79,0,0,0,46.39,75,17.12,17.12,0,0,0,44.89,79a16.2,16.2,0,0,0-.52,4c0,.28-.11.42-.31.42A.37.37,0,0,1,43.64,82.94Zm5.64,24.13q-4.37,4.89-8.63,9.73t-8.21,9.62Q27,132.89,21.38,139.9T11,153.79c-.07.14-.35.58-.83,1.3s-1,1.51-1.46,2.34a22.64,22.64,0,0,0-1.19,2.35c-.31.72-.36,1.12-.15,1.19.41.21,1,0,1.87-.52a23.5,23.5,0,0,0,2.8-2.29c1-1,2.13-2.07,3.28-3.28s2.23-2.41,3.27-3.59,1.94-2.24,2.7-3.17,1.32-1.62,1.66-2q2.4-2.93,5.61-7.18t6.76-9.42q3.53-5.15,7.11-10.87T49.28,107.07ZM63.12,124a39.62,39.62,0,0,0-2.86,4.37A10.57,10.57,0,0,0,59,131.71c.27-.49.55-1,.83-1.51l.62-1.2a26.35,26.35,0,0,0,1.35-2.39C62.19,125.78,62.64,124.91,63.12,124Z"/><path class="cls-1" d="M117.92,113.57a3,3,0,0,0-1.82-1.93,4.28,4.28,0,0,0-2.55.06,13.25,13.25,0,0,0-2.7,1.19,23.09,23.09,0,0,0-2.19,1.41,44.36,44.36,0,0,0-4.41,4.11,55.83,55.83,0,0,0-4.63,5.52,50.08,50.08,0,0,0-3.79,6,16.31,16.31,0,0,0-1.92,5.51,4,4,0,0,0-.1,1.51,2.69,2.69,0,0,0,.62,1.3c.49.35,1.36.12,2.6-.68a31.85,31.85,0,0,0,4.27-3.38c1.59-1.46,3.29-3.12,5.09-5s3.49-3.65,5.09-5.36,3-3.2,4.16-4.52,1.93-2.19,2.28-2.6q1.77-2.09,3.64-4.17t3.63-4.16c.35-.42.66-.76.94-1a2.47,2.47,0,0,1,.62-.47q.31-.15.42.36a5.23,5.23,0,0,1-.52,1.3l-1.14,2.35q-.63,1.24-1.14,2.28l-.63,1.25c-.41.83-1,2.14-1.76,3.9a48,48,0,0,0-2,5.47,19.85,19.85,0,0,0-.88,5.35,4,4,0,0,0,1.4,3.59l.52.31a5.76,5.76,0,0,0,2.76,0,14.16,14.16,0,0,0,3-1.1,20.19,20.19,0,0,0,2.76-1.66c.86-.63,1.64-1.18,2.34-1.67,2.14-1.59,4.22-3.28,6.23-5s4-3.55,5.93-5.36c.13-.14.31-.14.52,0s.14.38,0,.52c-.63.56-1.51,1.37-2.65,2.45s-2.46,2.25-4,3.53-3,2.56-4.68,3.8a46.91,46.91,0,0,1-4.83,3.28,21.47,21.47,0,0,1-4.42,2,4.42,4.42,0,0,1-3.28,0,3.91,3.91,0,0,1-2.13-2.7,11,11,0,0,1-.11-4.27,28,28,0,0,1,1.3-5q.93-2.66,2-5.15c.73-1.67,1.44-3.17,2.13-4.53s1.25-2.41,1.66-3.17L122,113q-2.23,2.61-4.94,5.67t-5.77,6.35q-3.06,3.28-5.87,6.09c-1.87,1.87-3.63,3.51-5.3,4.89a16.8,16.8,0,0,1-4.05,2.71,2.52,2.52,0,0,1-1.61.26,1.41,1.41,0,0,1-1-.73,3.83,3.83,0,0,1-.42-1.35,4.43,4.43,0,0,1,.1-1.61,19.8,19.8,0,0,1,2-5.62,45.13,45.13,0,0,1,3.84-6.14,63.64,63.64,0,0,1,4.68-5.62,35.59,35.59,0,0,1,4.52-4.16,22.22,22.22,0,0,1,2.54-1.72,9.74,9.74,0,0,1,3-1.19,5.11,5.11,0,0,1,2.81.15,3.7,3.7,0,0,1,2,2.34c0,.27-.11.41-.31.41S117.92,113.84,117.92,113.57Z"/><path class="cls-1" d="M147.15,115.52c-.77.9-1.63,2-2.6,3.33s-1.89,2.7-2.76,4.16a32.94,32.94,0,0,0-2.18,4.37,12.88,12.88,0,0,0-1,3.85,1.89,1.89,0,0,0,.47,1.51,1.52,1.52,0,0,0,1.19.26,5.2,5.2,0,0,0,1.57-.53,7.37,7.37,0,0,0,1.35-.83,31.1,31.1,0,0,0,4.67-4.58q2.6-3,5.09-6.5c1.67-2.33,3.22-4.63,4.68-6.92s2.59-4.2,3.42-5.72c.07-.14.18-.38.32-.73s.34-.45.62-.32.33.35.16.63-.3.48-.37.62q-3.31,6.87-7,13.79t-7.53,13.78q5.63-4.47,11-8.64a104.72,104.72,0,0,0,10.19-9c.21-.14.38-.14.52,0s.21.38,0,.52a118.24,118.24,0,0,1-10.13,8.85q-6.2,4.89-12.63,10.2c-1,1.6-1.89,3.17-2.76,4.74s-1.78,3.1-2.75,4.63c-.76,1.38-1.85,3.24-3.27,5.56s-3,4.68-4.62,7.08a81.33,81.33,0,0,1-5,6.55,17,17,0,0,1-4.52,4q-2.49,1.26-3.75.16c-.83-.73-1-2-.52-3.8a19.42,19.42,0,0,1,3.38-6.65,71.6,71.6,0,0,1,6.39-7.55q3.73-3.9,8.15-7.81t8.68-7.54q3-5.2,5.87-10.51T157,115.93q-1.56,2.38-3.28,4.73L150.58,125c-.48.56-1.21,1.42-2.18,2.6a31.91,31.91,0,0,1-3.22,3.38,13.74,13.74,0,0,1-3.59,2.45,2.87,2.87,0,0,1-3.17-.21,2.77,2.77,0,0,1-.52-2,10.79,10.79,0,0,1,.93-4.11,38.87,38.87,0,0,1,2.24-4.47,44.87,44.87,0,0,1,2.8-4.27,41.37,41.37,0,0,1,2.75-3.38.38.38,0,0,1,.53,0C147.28,115.28,147.28,115.45,147.15,115.52ZM144.56,139q-4,3.33-7.9,6.77t-7.11,6.77a65.42,65.42,0,0,0-5.67,6.5,29.63,29.63,0,0,0-3.63,6.09,14.4,14.4,0,0,0-.62,2.23,4,4,0,0,0,0,1.82,1.2,1.2,0,0,0,1,.89,4.2,4.2,0,0,0,2.33-.58,11.76,11.76,0,0,0,3.23-2.65c1.18-1.29,2.42-2.79,3.74-4.53s2.63-3.61,3.94-5.62,2.55-4,3.69-5.88l3.17-5.3q1.46-2.44,2.29-3.91c.27-.41.53-.83.77-1.24S144.29,139.51,144.56,139Z"/><path class="cls-1" d="M182.92,113.51a3,3,0,0,0-1.82-1.92,4.28,4.28,0,0,0-2.55.06,12.72,12.72,0,0,0-2.7,1.19,23.09,23.09,0,0,0-2.19,1.41,44.36,44.36,0,0,0-4.41,4.11,55.83,55.83,0,0,0-4.63,5.52,48.85,48.85,0,0,0-3.79,6,16.31,16.31,0,0,0-1.92,5.51,3.8,3.8,0,0,0-.1,1.51,2.69,2.69,0,0,0,.62,1.3c.49.35,1.35.12,2.6-.68a32,32,0,0,0,4.26-3.38c1.6-1.46,3.29-3.12,5.1-5s3.49-3.66,5.09-5.36,3-3.21,4.15-4.52,1.94-2.19,2.29-2.61q1.77-2.07,3.64-4.16c1.24-1.39,2.46-2.77,3.63-4.16.35-.42.66-.76.94-1a2.31,2.31,0,0,1,.62-.47q.31-.15.42.36a5.23,5.23,0,0,1-.52,1.3q-.53,1.1-1.14,2.34l-1.14,2.29-.63,1.25c-.41.83-1,2.14-1.76,3.9a48.56,48.56,0,0,0-2,5.46,20,20,0,0,0-.88,5.36,4,4,0,0,0,1.4,3.59l.52.31a5.76,5.76,0,0,0,2.76-.05,14.16,14.16,0,0,0,3-1.1,20.19,20.19,0,0,0,2.76-1.66c.86-.63,1.64-1.18,2.34-1.67q3.21-2.4,6.23-5t5.93-5.36c.13-.14.31-.14.52,0a.39.39,0,0,1,0,.52c-.63.56-1.51,1.37-2.65,2.45s-2.46,2.25-4,3.53-3,2.55-4.68,3.8a46.91,46.91,0,0,1-4.83,3.28,21.47,21.47,0,0,1-4.42,2,4.47,4.47,0,0,1-3.28,0,4,4,0,0,1-2.13-2.7,11,11,0,0,1-.11-4.27,27.17,27.17,0,0,1,1.3-5q.93-2.66,2-5.15T189,112c.69-1.35,1.24-2.41,1.66-3.17-.9,1-2.1,2.43-3.58,4.16s-3.14,3.63-4.94,5.67-3.72,4.17-5.77,6.35-4,4.22-5.87,6.09-3.64,3.5-5.3,4.89a16.8,16.8,0,0,1-4.05,2.71,2.59,2.59,0,0,1-1.61.26,1.41,1.41,0,0,1-1-.73,3.83,3.83,0,0,1-.42-1.35,4.22,4.22,0,0,1,.1-1.61,19.5,19.5,0,0,1,2-5.62,45.13,45.13,0,0,1,3.84-6.14,63.64,63.64,0,0,1,4.68-5.62,35.59,35.59,0,0,1,4.52-4.16,22.22,22.22,0,0,1,2.54-1.72,10,10,0,0,1,3-1.2,5.21,5.21,0,0,1,2.81.16,3.7,3.7,0,0,1,2,2.34c0,.27-.11.41-.32.41S182.92,113.79,182.92,113.51Z"/><path class="cls-1" d="M303.64,81.91a8.62,8.62,0,0,0,.2-3.69,5.42,5.42,0,0,0-2.08-3.07,12.82,12.82,0,0,0-5.52-2.65,25.47,25.47,0,0,0-6.91-.62,31.68,31.68,0,0,0-7,1.1,19.29,19.29,0,0,0-5.67,2.5,11.12,11.12,0,0,0-3.83,15.08,30.66,30.66,0,0,0,5.21,7q3.42,3.58,6.92,7.17a79.11,79.11,0,0,1,6.14,7.07,12.63,12.63,0,0,1,2.86,6.81,14.25,14.25,0,0,1-1.19,6.55,34.2,34.2,0,0,1-3.79,6.66,51.82,51.82,0,0,1-5.51,6.45q-3.11,3.12-6.39,5.88t-6.39,5q-3.12,2.24-5.51,3.7c-1.39.83-3.08,1.78-5.09,2.86a59.23,59.23,0,0,1-6.34,2.92,43.43,43.43,0,0,1-6.55,2,11.38,11.38,0,0,1-5.62,0c-1.67-.48-2.43-1.4-2.29-2.75a10.29,10.29,0,0,1,1.61-4.32,31.9,31.9,0,0,1,3.22-4.37c1.21-1.39,2.09-2.36,2.65-2.92q3.52-3.65,8-7.49t9.41-7.44q4.89-3.6,9.87-6.77a108.43,108.43,0,0,1,9.57-5.47.47.47,0,0,1,.52.11.45.45,0,0,1-.11.51,118.94,118.94,0,0,0-14.86,8.91q-7.38,5.14-13.72,10.57c-.35.27-1.09.91-2.24,1.92s-2.44,2.22-3.89,3.64-2.91,2.95-4.37,4.58a36.16,36.16,0,0,0-3.53,4.58,8.85,8.85,0,0,0-1.5,3.8c-.11,1.11.5,1.84,1.82,2.18a12,12,0,0,0,6.55-.16,44.68,44.68,0,0,0,7.74-2.81,81.89,81.89,0,0,0,7.44-4c2.35-1.42,4.26-2.62,5.71-3.59s2.92-2.09,4.79-3.54,3.77-3.09,5.71-4.9,3.83-3.72,5.67-5.77a43.45,43.45,0,0,0,4.72-6.3,23.91,23.91,0,0,0,2.81-6.4,10.37,10.37,0,0,0-.11-6,17.18,17.18,0,0,0-3.44-5.77q-2.6-3.06-5.72-6.23c-2.09-2.11-4.13-4.23-6.15-6.34a34.18,34.18,0,0,1-4.78-6.18,14.15,14.15,0,0,1-2-5.88,11.59,11.59,0,0,1,.73-5.36,12.11,12.11,0,0,1,3.11-4.47A16.9,16.9,0,0,1,279.81,73a28.1,28.1,0,0,1,5.62-1.46A29.78,29.78,0,0,1,292,71.2a24.61,24.61,0,0,1,6.29,1.2,11,11,0,0,1,4.84,3.06,6,6,0,0,1,1.62,3.17,9.58,9.58,0,0,1-.47,3.59c0,.14-.14.21-.41.21S303.5,82.12,303.64,81.91Z"/><path class="cls-1" d="M311.36,116.64q3.94-7.08,8.46-14.62t9-14.36q4.47-6.81,8.67-12.12a45.21,45.21,0,0,1,7.64-7.91,11.48,11.48,0,0,1,3.27-1.72,3.8,3.8,0,0,1,3.59.46c1.11.83,1.29,2.28.53,4.32a34.66,34.66,0,0,1-3.9,7.13,106.79,106.79,0,0,1-6.54,8.58q-3.79,4.53-7.48,8.54t-6.71,7.12q-3,3.14-4.15,4.27-2.91,2.82-6.19,6.09t-6.39,6q-3,5.5-5.5,10t-3.95,7.18c1.46-1.59,3.22-3.43,5.3-5.51s4.23-4,6.44-5.88a43.9,43.9,0,0,1,6.61-4.59,11.36,11.36,0,0,1,5.77-1.72c1.1.07,1.73.51,1.87,1.3a5.53,5.53,0,0,1-.31,2.71A22.47,22.47,0,0,1,326,125c-.56,1-1,1.8-1.25,2.29-.14.27-.34.67-.62,1.19a12,12,0,0,0-.73,1.67,8.91,8.91,0,0,0-.41,1.66,1.35,1.35,0,0,0,.31,1.2c.42.27,1.13.14,2.13-.42a29.51,29.51,0,0,0,3.43-2.29q1.94-1.45,4.11-3.38c1.46-1.29,2.82-2.52,4.1-3.7s2.41-2.25,3.38-3.23,1.66-1.63,2.08-2a.39.39,0,0,1,.52,0,.38.38,0,0,1,0,.53q-1.14,1.14-3.84,3.74c-1.81,1.74-3.71,3.49-5.72,5.26a61.2,61.2,0,0,1-5.82,4.58c-1.87,1.28-3.26,1.86-4.16,1.72a1.27,1.27,0,0,1-1.25-1.46,8.36,8.36,0,0,1,.62-3,24.64,24.64,0,0,1,1.46-3.12c.55-1,.93-1.68,1.14-2s.36-.82.67-1.41a8.15,8.15,0,0,0,.73-1.82,2.88,2.88,0,0,0,0-1.61c-.14-.45-.55-.71-1.25-.78-1.8-.06-3.93.68-6.39,2.24a58.55,58.55,0,0,0-7.43,5.68c-2.5,2.22-4.83,4.47-7,6.76s-3.86,4.1-5,5.42c-.34.2-.55.17-.62-.11s0-.45.31-.73a7.75,7.75,0,0,0,.62-1q1.77-3.33,4.31-7.91T310,119A16.92,16.92,0,0,1,311.36,116.64Zm.94-.21c1.8-1.67,3.65-3.45,5.56-5.36s3.68-3.66,5.35-5.26l2.49-2.55c1.32-1.35,2.87-3,4.68-4.89s3.74-4,5.82-6.35,4.1-4.68,6.08-7.07,3.75-4.7,5.35-6.92a40.34,40.34,0,0,0,3.63-5.94,6.88,6.88,0,0,0,.93-4.1c-.21-1-1.11-1.51-2.7-1.51q-2,.1-4.63,2.34a48.75,48.75,0,0,0-5.76,6q-3.12,3.75-6.55,8.74t-7,10.51q-3.52,5.52-6.91,11.29T312.3,116.43Z"/><path class="cls-1" d="M357,113.38a3,3,0,0,0-1.82-1.93,4.28,4.28,0,0,0-2.55.06,13.3,13.3,0,0,0-2.7,1.2,22.94,22.94,0,0,0-2.18,1.4,44.58,44.58,0,0,0-4.42,4.12,54.28,54.28,0,0,0-4.62,5.51,48.41,48.41,0,0,0-3.79,6,16.18,16.18,0,0,0-1.93,5.52,3.93,3.93,0,0,0-.1,1.5,2.59,2.59,0,0,0,.63,1.3c.48.35,1.35.13,2.6-.67a32.86,32.86,0,0,0,4.26-3.39c1.59-1.45,3.29-3.12,5.09-5s3.5-3.66,5.09-5.36,3-3.21,4.16-4.53,1.94-2.19,2.28-2.6q1.77-2.09,3.64-4.16t3.64-4.17c.34-.41.66-.76.93-1a2.58,2.58,0,0,1,.63-.47c.2-.1.34,0,.41.37a5.39,5.39,0,0,1-.52,1.3q-.51,1.1-1.14,2.34c-.41.83-.8,1.59-1.14,2.29s-.56,1.11-.62,1.24c-.42.84-1,2.14-1.77,3.91a47.86,47.86,0,0,0-2,5.46,20.32,20.32,0,0,0-.88,5.36,4,4,0,0,0,1.41,3.58l.52.31a5.71,5.71,0,0,0,2.75,0,14.2,14.2,0,0,0,3-1.09,21.2,21.2,0,0,0,2.75-1.67l2.34-1.67c2.15-1.59,4.23-3.28,6.24-5s4-3.55,5.92-5.36a.39.39,0,0,1,.52,0c.14.21.14.38,0,.52-.62.56-1.51,1.38-2.65,2.45s-2.46,2.26-3.95,3.54-3.05,2.55-4.68,3.8a48.57,48.57,0,0,1-4.83,3.28,21.68,21.68,0,0,1-4.42,2,4.34,4.34,0,0,1-3.27,0,3.93,3.93,0,0,1-2.14-2.7,11,11,0,0,1-.11-4.27,28.84,28.84,0,0,1,1.3-5c.62-1.77,1.3-3.48,2-5.15s1.44-3.17,2.13-4.52,1.25-2.41,1.67-3.18c-.91,1-2.1,2.43-3.59,4.16s-3.14,3.63-4.94,5.68-3.72,4.16-5.76,6.34-4,4.22-5.87,6.09-3.64,3.51-5.3,4.9a16.9,16.9,0,0,1-4.06,2.7,2.6,2.6,0,0,1-1.61.27,1.47,1.47,0,0,1-1-.73,3.83,3.83,0,0,1-.42-1.35,4.5,4.5,0,0,1,.11-1.62,19.39,19.39,0,0,1,2-5.61,44.88,44.88,0,0,1,3.84-6.14,62.22,62.22,0,0,1,4.68-5.62,35.68,35.68,0,0,1,4.52-4.17,22.85,22.85,0,0,1,2.55-1.72,10.2,10.2,0,0,1,3-1.19,5.11,5.11,0,0,1,2.81.15,3.67,3.67,0,0,1,2,2.34c0,.28-.1.41-.31.41C357.15,113.73,357,113.66,357,113.38Z"/><path class="cls-1" d="M385.3,116.68a37.71,37.71,0,0,0-2.65,3.07q-1.5,1.94-2.91,4.12a31,31,0,0,0-2.33,4.31,9.53,9.53,0,0,0-.94,3.69c0,.77.26,1.18.78,1.25a3.16,3.16,0,0,0,1.72-.31,14,14,0,0,0,1.82-1L382,131a75.34,75.34,0,0,0,6.23-4.58q2.91-2.4,6-4.69c.35-.27.62-.38.83-.31s.24.24.11.52c-.42.83-1,2-1.82,3.49s-1.52,3-2.18,4.62a19.32,19.32,0,0,0-1.3,4.58,3.34,3.34,0,0,0,.94,3.23c.49.41,1.3.24,2.44-.53a25.78,25.78,0,0,0,3.9-3.33c1.46-1.46,3-3.1,4.52-4.94s3-3.63,4.42-5.36,2.56-3.28,3.53-4.63,1.63-2.24,2-2.66c.07-.13.25-.39.52-.77l.83-1.15c.28-.38.56-.73.84-1s.48-.47.62-.47a.51.51,0,0,1,.47.36,5,5,0,0,1,.26.89,5.24,5.24,0,0,1,.1,1V116a6.05,6.05,0,0,0,1.1,3.48,2.76,2.76,0,0,0,2.13,1,6.14,6.14,0,0,0,2.76-.79,31.47,31.47,0,0,0,3.06-1.82c.28-.14.45-.1.52.1s.11.46-.1.52c-.56.35-1.2.73-1.92,1.15a13.7,13.7,0,0,1-2.24,1,7.55,7.55,0,0,1-2.34.47,2.86,2.86,0,0,1-2.13-.78,3.4,3.4,0,0,1-1-1.5,8.15,8.15,0,0,1-.42-1.82c-.07-.63-.12-1.21-.16-1.77a11.46,11.46,0,0,0-.15-1.35v.1c-.42.56-1.18,1.61-2.29,3.18s-2.42,3.31-3.95,5.25-3.13,4-4.83,6-3.36,3.93-5,5.56a30.43,30.43,0,0,1-4.46,3.8c-1.36.91-2.42,1.15-3.18.73a2.73,2.73,0,0,1-1.45-2.7,14.13,14.13,0,0,1,.72-4.32,28.86,28.86,0,0,1,1.92-4.68c.8-1.56,1.47-2.86,2-3.9l-4.57,3.54q-2.28,1.77-4.68,3.54c-.34.28-1,.75-1.87,1.41a16.36,16.36,0,0,1-2.8,1.66,6.48,6.48,0,0,1-2.71.68c-.83,0-1.31-.52-1.45-1.56a7.8,7.8,0,0,1,.72-3.85,28.79,28.79,0,0,1,2.44-4.63q1.51-2.34,3.12-4.42a35.68,35.68,0,0,1,2.75-3.23c.14-.2.31-.2.52,0A.37.37,0,0,1,385.3,116.68Z"/><path class="cls-1" d="M435.12,118.72a31.56,31.56,0,0,0,4,.26c1.77,0,3.59,0,5.46,0s3.64-.07,5.31-.21a25,25,0,0,0,3.74-.53.7.7,0,0,1,.52.21c.14.21.07.38-.21.52a17.79,17.79,0,0,1-3.89.58c-1.71.1-3.51.16-5.41.16s-3.75,0-5.51-.05a34.57,34.57,0,0,1-4.11-.26c-.21,0-.32-.14-.32-.41S434.84,118.72,435.12,118.72Z"/><path class="cls-1" d="M565.71,74.42A63.27,63.27,0,0,0,554,73.18a109.77,109.77,0,0,0-12.9.59q-6.66.67-13.47,2T514.13,79c1.38-.14,2.22.1,2.5.73a1.53,1.53,0,0,1,.1,1.24,10.47,10.47,0,0,1-.57,1.51c-.25.52-.5,1-.78,1.51s-.49.87-.62,1.14q-5,9-10.44,18t-11.06,17.74c.48-.34.91-.67,1.3-1a5.93,5.93,0,0,1,1-.67l2.65-1.56c1.28-.77,2.76-1.58,4.42-2.45s3.42-1.74,5.25-2.61a53.09,53.09,0,0,1,5.15-2.13,15.65,15.65,0,0,1,4.21-.94c1.21-.07,2,.28,2.34,1a.87.87,0,0,1,0,.83,3.85,3.85,0,0,1-.57.83,7.18,7.18,0,0,1-.78.78c-.28.25-.49.44-.62.57a.39.39,0,0,1-.63,0c-.14-.27-.1-.44.11-.52a10.79,10.79,0,0,0,1-1c.2-.25.39-.47.57-.68s.22-.38.15-.52a2.38,2.38,0,0,0-2.23-.52,19.69,19.69,0,0,0-3.85,1,42.32,42.32,0,0,0-4.68,2q-2.44,1.2-4.68,2.35t-4,2.18c-1.18.7-2,1.18-2.5,1.46-.83.49-1.64,1-2.44,1.56s-1.57,1.15-2.34,1.77l-.62.94q-2.39,3.65-5.14,7.7t-5.61,8.12q-2.87,4.05-5.87,7.85t-5.92,7c-.42.41-1.09,1.11-2,2.08a25.15,25.15,0,0,1-3,2.65,10.36,10.36,0,0,1-3.17,1.67,2.36,2.36,0,0,1-2.61-.68q-1-1.25.21-3.89a32,32,0,0,1,4.05-6.15q2.81-3.48,6.65-7.38c2.56-2.61,5.2-5.17,7.9-7.71s5.33-4.91,7.9-7.13,4.78-4.06,6.65-5.51c.69-1.11,1.38-2.2,2.08-3.28s1.35-2.13,2-3.17c.48-.77,1.3-2.07,2.44-3.91s2.46-4,3.95-6.4,3-4.95,4.62-7.59,3.07-5.12,4.41-7.44,2.5-4.34,3.43-6A18.35,18.35,0,0,0,516,81c.21-.69,0-1.1-.68-1.24a6,6,0,0,0-2.34,0,21.91,21.91,0,0,0-2.65.68l-1.61.52A127.49,127.49,0,0,0,492.4,88q-8.11,4.11-16.11,7.65l-1.31.63c-.59.28-1,.24-1.09-.1s.26-1,1.2-1.72a29.89,29.89,0,0,1,3.27-2.19q1.88-1.09,3.69-2c1.22-.59,2-1,2.34-1.19A171.89,171.89,0,0,1,503,81.65a198.57,198.57,0,0,1,21.47-6,150.51,150.51,0,0,1,21.79-3.13,72.57,72.57,0,0,1,19.71,1.12c.2.14.31.28.31.42S565.92,74.49,565.71,74.42ZM490.24,124c-.83.76-1.68,1.5-2.54,2.23s-1.72,1.48-2.55,2.24q-.93.84-3.48,3.07c-1.7,1.5-3.6,3.25-5.72,5.26s-4.29,4.16-6.54,6.45-4.27,4.49-6,6.61a40.49,40.49,0,0,0-4.1,5.72c-1,1.7-1.21,2.93-.73,3.7.49,1,1.35,1.14,2.6.51a18.75,18.75,0,0,0,3.85-2.65,43.74,43.74,0,0,0,3.69-3.64c1.14-1.29,1.88-2.14,2.23-2.55q5.08-6,9.92-13T490.24,124Zm12.14-41.41q-4.89,1.78-9.31,3.55t-8.36,3.64l-1.88.94-2.65,1.36a31.1,31.1,0,0,0-2.7,1.56,11.79,11.79,0,0,0-2,1.56q4.07-1.77,8.37-3.91t8.27-4c.62-.34,1.9-1,3.84-1.87S500,83.56,502.38,82.58Z"/><path class="cls-1" d="M550.76,113.23a3,3,0,0,0-1.82-1.93,4.28,4.28,0,0,0-2.55.06,13.3,13.3,0,0,0-2.7,1.2,21.12,21.12,0,0,0-2.18,1.4,44.34,44.34,0,0,0-4.42,4.11,54.41,54.41,0,0,0-4.62,5.52,48.41,48.41,0,0,0-3.79,6,15.86,15.86,0,0,0-1.92,5.52,3.76,3.76,0,0,0-.11,1.5,2.63,2.63,0,0,0,.63,1.3c.48.35,1.35.12,2.6-.68a31.22,31.22,0,0,0,4.26-3.38q2.39-2.19,5.09-5c1.8-1.88,3.5-3.66,5.09-5.36s3-3.21,4.16-4.53,1.94-2.19,2.29-2.6q1.76-2.09,3.63-4.17T558,108c.34-.42.66-.76.93-1a2.58,2.58,0,0,1,.63-.47c.2-.1.34,0,.41.36a5.44,5.44,0,0,1-.51,1.3c-.35.73-.73,1.51-1.15,2.35s-.79,1.59-1.14,2.28-.55,1.12-.62,1.25q-.63,1.26-1.77,3.9a48,48,0,0,0-2,5.47,20.31,20.31,0,0,0-.88,5.35,4,4,0,0,0,1.41,3.59l.52.31a5.71,5.71,0,0,0,2.75,0,14,14,0,0,0,3-1.1,20.08,20.08,0,0,0,2.75-1.66l2.34-1.67c2.15-1.59,4.23-3.28,6.24-5s4-3.55,5.92-5.36c.14-.14.31-.14.52,0s.14.38,0,.52c-.62.56-1.51,1.37-2.65,2.45s-2.46,2.25-4,3.54-3,2.55-4.68,3.8a50.35,50.35,0,0,1-4.83,3.28,21.68,21.68,0,0,1-4.42,2,4.34,4.34,0,0,1-3.27,0,4,4,0,0,1-2.14-2.7,10.77,10.77,0,0,1-.1-4.27,27.91,27.91,0,0,1,1.29-5q.93-2.65,2-5.15t2.12-4.53c.69-1.35,1.25-2.41,1.67-3.17-.91,1-2.1,2.43-3.59,4.16s-3.14,3.63-4.93,5.67-3.73,4.17-5.77,6.35-4,4.22-5.87,6.09-3.64,3.51-5.3,4.89a17,17,0,0,1-4.06,2.71,2.52,2.52,0,0,1-1.61.26,1.43,1.43,0,0,1-1-.72,4.1,4.1,0,0,1-.42-1.36A4.44,4.44,0,0,1,526,135a19.44,19.44,0,0,1,2-5.62,47.18,47.18,0,0,1,3.84-6.14,62.06,62.06,0,0,1,4.68-5.61,36.37,36.37,0,0,1,4.52-4.17,21.55,21.55,0,0,1,2.55-1.72,9.69,9.69,0,0,1,3-1.19,5.11,5.11,0,0,1,2.81.15,3.67,3.67,0,0,1,2,2.34c0,.28-.1.41-.31.41S550.76,113.5,550.76,113.23Z"/><path class="cls-1" d="M611.36,67.42a11.74,11.74,0,0,1,3.27-1.72,3.8,3.8,0,0,1,3.59.46c1.11.84,1.29,2.28.52,4.32a34.56,34.56,0,0,1-3.89,7.13,102.2,102.2,0,0,1-6.55,8.53q-3.78,4.47-7.48,8.53t-6.7,7.13c-2,2-3.39,3.46-4.16,4.22q-2.81,2.91-6.13,6.19t-6.44,6q-3,5.42-5.45,9.88t-4,7.18q1.14-1.35,3.17-3.49t4.36-4.42c1.56-1.52,3.17-3,4.83-4.47a36.06,36.06,0,0,1,4.79-3.6,11.07,11.07,0,0,1,4.16-1.66,2.67,2.67,0,0,1,2.8,1.09,3.71,3.71,0,0,1,.63,2.49,10.26,10.26,0,0,1-.72,3,18.31,18.31,0,0,1-1.51,3c-.59.94-1.13,1.72-1.61,2.34a1.83,1.83,0,0,1,.62-.26A.89.89,0,0,0,590,129a73.78,73.78,0,0,0,9.83-4.89,86.14,86.14,0,0,0,9-6.35c.14-.14.31-.14.52,0s.21.38,0,.52q-4,3.12-7.69,5.57a60.35,60.35,0,0,1-8.42,4.53c-.42.21-1.11.5-2.08.88s-2.08.85-3.33,1.41a23.69,23.69,0,0,1-2.91,2.65,34.66,34.66,0,0,1-3.48,2.4,22.62,22.62,0,0,1-3.74,1.82,15.6,15.6,0,0,1-3.7.94,2.67,2.67,0,0,1-2.13-.31c-.38-.35-.05-.9,1-1.66a18.26,18.26,0,0,1,2.44-1.36c1.15-.55,2.41-1.13,3.8-1.72s2.8-1.18,4.26-1.77l3.95-1.61a8,8,0,0,0,.93-1.1c.28-.38.59-.78.94-1.19s.66-1.06,1.14-1.93a16.23,16.23,0,0,0,1.2-2.7,8.35,8.35,0,0,0,.46-2.6,2,2,0,0,0-.94-1.82,3.64,3.64,0,0,0-3.32.16,23,23,0,0,0-4.58,2.75,55.65,55.65,0,0,0-5.14,4.43c-1.77,1.7-3.45,3.36-5,5s-3,3.12-4.21,4.47l-2.65,3v-.11c-.27.42-.48.42-.62,0-.07-.14,0-.41.31-.83a1.84,1.84,0,0,0,.36-.52,1.63,1.63,0,0,1,.26-.42q2.8-5,6.28-11.34T580,112.11q3.88-6.81,8-13.68t8.15-12.9q4-6,7.95-10.77A47.54,47.54,0,0,1,611.36,67.42ZM586,131.4c-1.45.62-2.94,1.25-4.47,1.87s-2.93,1.24-4.21,1.83-2.37,1.13-3.27,1.61a5.89,5.89,0,0,0-1.56,1,2.71,2.71,0,0,0,1.51,0,19.89,19.89,0,0,0,2.08-.57,21.31,21.31,0,0,0,2-.78c.63-.28,1.11-.49,1.46-.63a30,30,0,0,0,3.43-2A23.71,23.71,0,0,0,586,131.4Zm-7.5-15.28c1.8-1.6,3.66-3.35,5.56-5.26l5.35-5.36,2.5-2.5q2-2,4.67-4.89t5.82-6.4c2.08-2.32,4.11-4.67,6.08-7s3.76-4.65,5.35-6.87a40.12,40.12,0,0,0,3.64-5.93,6.92,6.92,0,0,0,.93-4.11c-.21-1-1.11-1.51-2.7-1.51q-2,0-4.63,2.24a46.8,46.8,0,0,0-5.77,6q-3.12,3.8-6.54,8.74t-7,10.51q-3.54,5.57-6.91,11.29T578.53,116.12Z"/><path class="cls-1" d="M609.73,118q-1.25,1.77-2.38,3.65a38.18,38.18,0,0,0-2,3.74,19.53,19.53,0,0,0-1.3,3.54,6.5,6.5,0,0,0-.1,3,1.53,1.53,0,0,0,2,1.34,13.68,13.68,0,0,0,4.16-1.71,50,50,0,0,0,5.3-3.6c1.9-1.45,3.71-2.89,5.4-4.32s3.17-2.68,4.42-3.8,2-1.8,2.29-2.08.31-.14.52,0,.1.45-.1.52q-.74.73-2.55,2.4c-1.21,1.11-2.62,2.34-4.21,3.69s-3.29,2.71-5.09,4.06a56.32,56.32,0,0,1-5.2,3.49,17.56,17.56,0,0,1-4.42,1.93,2.6,2.6,0,0,1-2.86-.68,3.73,3.73,0,0,1-.52-3.22,19.88,19.88,0,0,1,1.4-4.27,44,44,0,0,1,2.18-4.21c.79-1.35,1.4-2.34,1.82-3s1.45-1.95,2.7-3.54a45.79,45.79,0,0,1,4-4.53,23,23,0,0,1,4.21-3.33c1.35-.8,2.44-.85,3.28-.16a1.83,1.83,0,0,1,.67,2,5.36,5.36,0,0,1-1.55,2.18,21.6,21.6,0,0,1-2.91,2.19c-1.15.73-2.33,1.41-3.54,2s-2.34,1.16-3.38,1.61S610.22,117.76,609.73,118Zm.94-1.14c1-.42,2.18-1,3.64-1.67a35.87,35.87,0,0,0,4.1-2.29,21,21,0,0,0,3.23-2.5c.86-.83,1.19-1.59,1-2.29a1,1,0,0,0-1.51-.83,10.85,10.85,0,0,0-2.59,1.41,23.08,23.08,0,0,0-2.65,2.18c-.84.8-1.36,1.31-1.56,1.51l-1.67,1.93C612,115,611.36,115.85,610.67,116.82Z"/><path class="cls-1" d="M627.41,117.85c1-1,1.82-2,2.55-2.92s1.37-1.66,1.92-2.29a1.62,1.62,0,0,1-.47-1.87,7.24,7.24,0,0,1,1.14-2.18,7.38,7.38,0,0,1,1.77-1.72c.66-.45,1.16-.61,1.51-.47.69.35.69,1.09,0,2.24a29.47,29.47,0,0,1-2.81,3.79,8.73,8.73,0,0,0,1.25.52,3.48,3.48,0,0,1,1,.52,1.34,1.34,0,0,1,.52.83,2.14,2.14,0,0,1-.52,1.46c-.2.35-.64,1-1.29,2s-1.37,2.08-2.13,3.33-1.47,2.55-2.13,3.9a16.27,16.27,0,0,0-1.35,3.74,4.82,4.82,0,0,0,.11,2.86c.31.77,1.09,1.18,2.34,1.25a7.73,7.73,0,0,0,4.68-1.72,43,43,0,0,0,5.19-4.32c1.73-1.66,3.34-3.35,4.83-5s2.72-3,3.69-4c.21-.2.38-.17.52.11s.14.31,0,.52c-1,1-2.27,2.38-3.89,4.21a74.29,74.29,0,0,1-5.2,5.31,38.56,38.56,0,0,1-5.56,4.32,6.73,6.73,0,0,1-5.09,1.25c-1.74-.34-2.59-1.31-2.56-2.91a13.78,13.78,0,0,1,1.35-5.25,43.27,43.27,0,0,1,3-5.51c1.15-1.77,2-3,2.45-3.7a3.93,3.93,0,0,0,.77-1.51.54.54,0,0,0-.26-.62,4.72,4.72,0,0,0-.93-.31,5.22,5.22,0,0,1-1.36-.57c-.55.69-1.23,1.49-2,2.39s-1.68,1.91-2.65,3c-.14.07-.28,0-.42-.16A.31.31,0,0,1,627.41,117.85Zm5-5.83a22.51,22.51,0,0,0,2.23-2.76,3.36,3.36,0,0,0,.78-2.13V107q-.3,0-1,.63a10.33,10.33,0,0,0-1.29,1.46,6.66,6.66,0,0,0-.94,1.66A1,1,0,0,0,632.4,112Z"/><path class="cls-2" d="M176.43,36.87l3.13,8,3.25-8.59,3.12,8.59,3.31-8h2L185.86,49.6l-3.08-8.48-3.21,8.49-5.1-12.74Z"/><path class="cls-2" d="M200.89,38.55h-4.8v2.88h4.67v1.7H196.1v4h4.8v1.7h-6.61v-12h6.61Z"/><path class="cls-2" d="M204.86,48.83v-12h1.8a8.06,8.06,0,0,1,1.91.18,3,3,0,0,1,1.22.63,3.35,3.35,0,0,1,.8,1.14,3.49,3.49,0,0,1,.3,1.4,2.82,2.82,0,0,1-1,2.18,2.82,2.82,0,0,1,1.5,1.14,3.38,3.38,0,0,1-.43,4.25,3.11,3.11,0,0,1-1.34.83,7.75,7.75,0,0,1-2,.23ZM206.67,42h.56a2.13,2.13,0,0,0,1.48-.44,1.76,1.76,0,0,0,.47-1.32A1.64,1.64,0,0,0,208.7,39a2,2,0,0,0-1.4-.44h-.64Zm0,5.14h1.12a2.81,2.81,0,0,0,1.8-.48,1.68,1.68,0,0,0,.6-1.32,1.7,1.7,0,0,0-.58-1.31,3.06,3.06,0,0,0-2-.52h-.91Z"/><path class="cls-2" d="M222.34,48.82v-12h2.52a9.42,9.42,0,0,1,2.85.35,5.42,5.42,0,0,1,2,1.19,6.18,6.18,0,0,1-.07,8.91,5.61,5.61,0,0,1-2,1.19,9.34,9.34,0,0,1-2.82.34Zm1.81-1.7H225a6.74,6.74,0,0,0,2-.26,4.12,4.12,0,0,0,2.8-4,4.2,4.2,0,0,0-1.33-3.19,5,5,0,0,0-3.5-1.09h-.81Z"/><path class="cls-2" d="M242.07,38.53h-4.8v2.88h4.66v1.7h-4.66v4h4.8v1.7h-6.61v-12h6.61Z"/><path class="cls-2" d="M252.8,38.6l-1.46.87a2.66,2.66,0,0,0-.79-.93,2.13,2.13,0,0,0-2.25.18,1.34,1.34,0,0,0-.49,1.06c0,.58.43,1,1.3,1.41l1.2.49a5,5,0,0,1,2.13,1.44,3.23,3.23,0,0,1,.68,2.08,3.68,3.68,0,0,1-1.1,2.73A3.77,3.77,0,0,1,249.26,49a3.68,3.68,0,0,1-2.57-.92,4.22,4.22,0,0,1-1.25-2.6l1.83-.41a3.16,3.16,0,0,0,.43,1.46,2.06,2.06,0,0,0,3,.21,2,2,0,0,0,.55-1.44,2.2,2.2,0,0,0-.09-.64,1.68,1.68,0,0,0-.31-.53,2.22,2.22,0,0,0-.53-.46,4.59,4.59,0,0,0-.77-.4l-1.16-.48c-1.64-.7-2.46-1.71-2.46-3a2.87,2.87,0,0,1,1-2.26,3.73,3.73,0,0,1,2.57-.92A3.57,3.57,0,0,1,252.8,38.6Z"/><path class="cls-2" d="M258.69,36.82v12h-1.81v-12Z"/><path class="cls-2" d="M269.32,42.55h4.95v.39a8.23,8.23,0,0,1-.32,2.39,4.87,4.87,0,0,1-1.05,1.8A5.39,5.39,0,0,1,268.66,49a5.78,5.78,0,0,1-4.3-1.81,6.25,6.25,0,0,1,0-8.8,6.32,6.32,0,0,1,7.06-1.25A7.45,7.45,0,0,1,273.73,39l-1.29,1.24a4.33,4.33,0,0,0-3.59-2,4.27,4.27,0,0,0-3.19,1.31,4.36,4.36,0,0,0-1.28,3.23,4.25,4.25,0,0,0,1.43,3.29,4.31,4.31,0,0,0,2.91,1.2,3.62,3.62,0,0,0,2.4-.9,3.22,3.22,0,0,0,1.19-2.17h-3Z"/><path class="cls-2" d="M278.13,48.78V36l8.74,9.13V36.8h1.81V49.51l-8.74-9.11v8.38Z"/><path class="cls-2" d="M299.74,38.49h-4.8v2.88h4.66v1.7h-4.66v4h4.8v1.7h-6.61v-12h6.61Z"/><path class="cls-2" d="M307.76,43.66l3.71,5.1h-2.21l-3.42-4.9h-.33v4.91h-1.81v-12h2.12a5.28,5.28,0,0,1,3.43.89,3.28,3.28,0,0,1,1.16,2.62,3.43,3.43,0,0,1-.72,2.19A3.26,3.26,0,0,1,307.76,43.66Zm-2.25-1.37h.57c1.72,0,2.57-.66,2.57-2s-.83-1.83-2.5-1.83h-.64Z"/><path class="cls-2" d="M323.5,36.78h1.8v15h-1.8Z"/><path class="cls-2" d="M338.42,48.75V36l8.74,9.14V36.76H349V49.47l-8.74-9.11v8.39Z"/><path class="cls-2" d="M360,38.45h-4.8v2.87h4.67V43h-4.67v4H360v1.7h-6.61v-12H360Z"/><path class="cls-2" d="M364.57,36.75l3.13,8L371,36.17l3.13,8.58,3.3-8h2L374,49.49,370.92,41l-3.21,8.5-5.1-12.75Z"/><path class="cls-2" d="M391.34,43.54l-3.91-6.8h2.08l2.74,4.78L395,36.73h2.08l-3.92,6.81v5.17h-1.81Z"/><path class="cls-2" d="M398.84,42.67a5.89,5.89,0,0,1,1.85-4.35,6.11,6.11,0,0,1,4.44-1.82,6.27,6.27,0,0,1,6.23,6.23,5.88,5.88,0,0,1-1.84,4.38,6.33,6.33,0,0,1-8.64.21A5.87,5.87,0,0,1,398.84,42.67Zm1.82,0A4.36,4.36,0,0,0,402,46a4.26,4.26,0,0,0,3.07,1.28,4.32,4.32,0,0,0,3.18-1.3,4.66,4.66,0,0,0,0-6.43,4.47,4.47,0,0,0-6.31,0A4.32,4.32,0,0,0,400.66,42.69Z"/><path class="cls-2" d="M419.28,43.59l3.71,5.1h-2.21l-3.42-4.91H417v4.9h-1.81v-12h2.12a5.34,5.34,0,0,1,3.43.89,3.29,3.29,0,0,1,1.16,2.62,3.43,3.43,0,0,1-.72,2.19A3.26,3.26,0,0,1,419.28,43.59ZM417,42.22h.57c1.72,0,2.57-.66,2.57-2s-.83-1.84-2.5-1.84H417Z"/><path class="cls-2" d="M428.19,41.49l4.65-4.78h2.42l-5.41,5.43,5.45,6.55h-2.42l-4.32-5.33-.37.37v5h-1.81v-12h1.8Z"/><path class="cls-2" d="M453.83,37.34v2.14a5.05,5.05,0,0,0-3.25-1.31,4.14,4.14,0,0,0-3.11,1.33,4.47,4.47,0,0,0-1.27,3.23,4.35,4.35,0,0,0,1.28,3.18,4.2,4.2,0,0,0,3.12,1.29,3.81,3.81,0,0,0,1.62-.31,4.59,4.59,0,0,0,.77-.42,8,8,0,0,0,.84-.63V48a6.56,6.56,0,0,1-3.26.87,6.15,6.15,0,0,1-6.19-6.14,6.17,6.17,0,0,1,1.51-4.09,6,6,0,0,1,4.81-2.19A6.13,6.13,0,0,1,453.83,37.34Z"/><path class="cls-2" d="M459.51,36.69v12h-1.81v-12Z"/><path class="cls-2" d="M467.28,38.39V48.67h-1.81V38.39h-2.76v-1.7H470v1.7Z"/><path class="cls-2" d="M476.43,43.49l-3.91-6.8h2.08l2.74,4.79,2.74-4.79h2.08l-3.92,6.81v5.17h-1.8Z"/></svg>