<svg id="Layer_1" data-name="Layer 1" xmlns="http://www.w3.org/2000/svg" viewBox="0 0 455.56 92.73"><defs><style>.cls-1{fill:#fff;}</style></defs><title>mayalogo</title><path class="cls-1" d="M41.75,60.09a34.45,34.45,0,0,1-.63-5.64C41,52,41,49.18,41,46.11s.1-6.23.22-9.48.28-6.26.47-9,.41-5.13.63-7.06a13.32,13.32,0,0,1,.62-3.4c.14-.3.62-.58,1.43-.85a7.91,7.91,0,0,1,2.45-.4,5.17,5.17,0,0,1,1.64.26,1.94,1.94,0,0,1,1.14.91,7.36,7.36,0,0,1,.51,1.76c.19.93.4,2.07.62,3.44s.44,2.88.66,4.54.45,3.32.7,5c.48,4,1,8.37,1.53,13.25q1.4-7.75,2.57-14,.72-3.74,1.17-6t.84-4.17c.27-1.29.51-2.39.73-3.29a11.11,11.11,0,0,1,.48-1.65,1.79,1.79,0,0,1,.87-.55,4.79,4.79,0,0,1,1.39-.18,7.63,7.63,0,0,1,2.42.4c.78.27,1.22.63,1.32,1.06a24.45,24.45,0,0,1,.69,5.53c.12,2.61.19,5.56.19,8.86s-.07,6.72-.19,10.28-.25,6.84-.4,9.84-.28,5.54-.4,7.62A22.38,22.38,0,0,1,65,62.21a1.36,1.36,0,0,1-1,.88,5,5,0,0,1-1.69.29,5.17,5.17,0,0,1-1.64-.25,2,2,0,0,1-1.06-.7,13.17,13.17,0,0,1-.63-3c-.17-1.34-.3-2.91-.4-4.69s-.16-3.69-.18-5.74,0-4.1,0-6.15q0-7.24.3-15.81c-.3,1.07-.62,2.42-1,4s-.71,3.29-1,5-.63,3.52-1,5.3-.6,3.39-.84,4.83-.45,2.63-.62,3.55S54,51.31,54,51.45c-.25.49-.83.73-1.76.73a2.7,2.7,0,0,1-1.75-.58A7.14,7.14,0,0,1,50,50.14c-.22-.83-.44-1.9-.66-3.19s-.46-2.73-.73-4.32-.55-3.2-.84-4.86c-.64-3.91-1.29-8.27-2-13.11q-.36,3.3-.55,7.14T45,39.49q-.07,3.84,0,7.46T45,53.43c.05,1.9.09,3.45.11,4.65a11.2,11.2,0,0,1,0,1.94.94.94,0,0,1-.69.51,4.34,4.34,0,0,1-1.14.14,3.64,3.64,0,0,1-1-.11A.77.77,0,0,1,41.75,60.09Z"/><path class="cls-1" d="M100.59,44.72a.75.75,0,0,1,.73-.51.91.91,0,0,1,.66.29.77.77,0,0,1,.15.8q-1.55,4.32-3,7.62c-.59,1.36-1.09,2.45-1.5,3.25a20.91,20.91,0,0,1-1.28,2.16A11.38,11.38,0,0,1,95,59.94a1.86,1.86,0,0,1-1.25.66,4.17,4.17,0,0,1-2.92-1.06A8.29,8.29,0,0,1,89,56.91a13,13,0,0,1-1-3.44,21.59,21.59,0,0,1-.29-3.41c0-.53,0-1.07,0-1.61s.06-1.1.11-1.68c-.58,1.37-1.24,2.79-2,4.28a35.09,35.09,0,0,1-2.31,4,18.74,18.74,0,0,1-2.41,3,3.51,3.51,0,0,1-2.38,1.17A4.91,4.91,0,0,1,74.28,57a11.28,11.28,0,0,1-1.43-6.15,13.83,13.83,0,0,1,.81-4.54,14.14,14.14,0,0,1,2.27-4.21,12.07,12.07,0,0,1,3.55-3.07,9,9,0,0,1,4.64-1.21,10.39,10.39,0,0,1,3.08.37,4.91,4.91,0,0,1,1.83.95,7.69,7.69,0,0,0,.29-.74,1.29,1.29,0,0,1,.73-.62,3.3,3.3,0,0,1,1.1-.18,6.4,6.4,0,0,1,2.63.59c.88.39,1.27.83,1.17,1.31a43.48,43.48,0,0,0-1,6.33c-.14,2.08-.19,3.93-.14,5.57a28.42,28.42,0,0,0,.33,3.95c.17,1,.33,1.5.47,1.5.39,0,.93-.63,1.61-1.9s1.34-2.66,2-4.18C99,49,99.76,47,100.59,44.72ZM80,55.33a2.14,2.14,0,0,0,1.46-.88,13.8,13.8,0,0,0,1.65-2.27,32.9,32.9,0,0,0,1.65-3.11c.53-1.14,1.05-2.28,1.54-3.4,0-.39,0-.85-.08-1.39A15.62,15.62,0,0,0,86,42.71a3.94,3.94,0,0,0-.47-1.32,1,1,0,0,0-.84-.55,2.8,2.8,0,0,0-1.65.91,9.93,9.93,0,0,0-1.87,2.57,20.9,20.9,0,0,0-1.54,3.88,17.69,17.69,0,0,0-.65,4.94,3.21,3.21,0,0,0,.33,1.72A.9.9,0,0,0,80,55.33Z"/><path class="cls-1" d="M128.4,44.72a.75.75,0,0,1,.73-.51,1.06,1.06,0,0,1,.7.29.63.63,0,0,1,.11.8,26.74,26.74,0,0,1-4.43,8,45.44,45.44,0,0,1-5.67,5.81c-.34,2.3-.78,4.55-1.32,6.77a39.08,39.08,0,0,1-1.9,5.93,14.15,14.15,0,0,1-2.56,4.17,4.43,4.43,0,0,1-3.3,1.58,6,6,0,0,1-4-1.47,5.55,5.55,0,0,1-1.76-4.53,6,6,0,0,1,.7-2.89,10,10,0,0,1,1.87-2.42,19.8,19.8,0,0,1,2.74-2.2c1-.7,2.18-1.47,3.4-2.3.39-2.64.74-5.31,1-8s.54-5.18.73-7.42c-.44,1-1,2.12-1.57,3.44a36.64,36.64,0,0,1-2,3.77,18.65,18.65,0,0,1-2.26,3,3.29,3.29,0,0,1-2.27,1.25,4.05,4.05,0,0,1-2.67-.81,5.1,5.1,0,0,1-1.51-2.08,9.51,9.51,0,0,1-.62-2.75c-.07-1-.11-1.9-.11-2.78a17.53,17.53,0,0,1,.59-4.68c.39-1.42.71-2.44,1-3.08a.65.65,0,0,1,.37-.36l.65-.19a4.85,4.85,0,0,1,1.1-.11,3.41,3.41,0,0,1,2.27.74,2.4,2.4,0,0,1,.88,2,24.34,24.34,0,0,1-.26,2.56q-.26,1.91-.51,4c-.17,1.36-.28,2.58-.33,3.65s0,1.62.29,1.62.67-.38,1.14-1.14a26.38,26.38,0,0,0,1.46-2.85c.52-1.15,1-2.39,1.58-3.74s1-2.59,1.46-3.77.83-2.16,1.17-3A6.45,6.45,0,0,1,116,39.6a1.44,1.44,0,0,1,.51-1.25,2.12,2.12,0,0,1,1.25-.36,4.79,4.79,0,0,1,2.59.87,2.27,2.27,0,0,1,1.29,2s0,.53-.08,1.43-.12,2.08-.22,3.55-.23,3.13-.4,5-.4,3.82-.7,5.82a36.62,36.62,0,0,0,4.4-5A33.8,33.8,0,0,0,128.4,44.72ZM109.15,74.58a1.6,1.6,0,0,0,1.25-.84,10.23,10.23,0,0,0,1.1-2.27,32.31,32.31,0,0,0,1-3.37c.32-1.29.6-2.69.85-4.21a48.21,48.21,0,0,0-4.58,3.77A5.15,5.15,0,0,0,107,71.43c0,1.37.27,2.24.8,2.6A2.59,2.59,0,0,0,109.15,74.58Z"/><path class="cls-1" d="M157.16,44.72a.77.77,0,0,1,.74-.51,1,1,0,0,1,.66.29.76.76,0,0,1,.14.8q-1.53,4.32-3,7.62c-.58,1.36-1.09,2.45-1.5,3.25a17.86,17.86,0,0,1-1.28,2.16,11.38,11.38,0,0,1-1.32,1.61,1.84,1.84,0,0,1-1.24.66,4.19,4.19,0,0,1-2.93-1.06,8.12,8.12,0,0,1-1.9-2.63,13,13,0,0,1-1-3.44,22.85,22.85,0,0,1-.29-3.41c0-.53,0-1.07,0-1.61s.06-1.1.11-1.68c-.59,1.37-1.25,2.79-2,4.28a35.08,35.08,0,0,1-2.3,4,19.32,19.32,0,0,1-2.42,3,3.51,3.51,0,0,1-2.38,1.17A4.91,4.91,0,0,1,130.85,57a11.29,11.29,0,0,1-1.42-6.15,13.81,13.81,0,0,1,.8-4.54,14.37,14.37,0,0,1,2.27-4.21,12.33,12.33,0,0,1,3.55-3.07,9.06,9.06,0,0,1,4.65-1.21,10.32,10.32,0,0,1,3.07.37,4.91,4.91,0,0,1,1.83.95,4.57,4.57,0,0,0,.29-.74,1.28,1.28,0,0,1,.74-.62,3.24,3.24,0,0,1,1.09-.18,6.48,6.48,0,0,1,2.64.59c.88.39,1.27.83,1.17,1.31a40.91,40.91,0,0,0-.95,6.33,54.86,54.86,0,0,0-.15,5.57,30.06,30.06,0,0,0,.33,3.95q.26,1.5.48,1.5c.39,0,.92-.63,1.61-1.9s1.34-2.66,2-4.18C155.55,49,156.33,47,157.16,44.72ZM136.53,55.33a2.18,2.18,0,0,0,1.46-.88,14.4,14.4,0,0,0,1.65-2.27,32.94,32.94,0,0,0,1.64-3.11c.54-1.14,1.05-2.28,1.54-3.4,0-.39,0-.85-.07-1.39s-.13-1.06-.22-1.57a4,4,0,0,0-.48-1.32,1,1,0,0,0-.84-.55,2.8,2.8,0,0,0-1.65.91,9.69,9.69,0,0,0-1.86,2.57,20.23,20.23,0,0,0-1.54,3.88,17.32,17.32,0,0,0-.66,4.94,3.21,3.21,0,0,0,.33,1.72A.9.9,0,0,0,136.53,55.33Z"/><path class="cls-1" d="M189.66,22a1.23,1.23,0,0,1-.4,1,1.36,1.36,0,0,1-.85.32,1.31,1.31,0,0,1-.87-.29,1.12,1.12,0,0,1-.37-.95,10.15,10.15,0,0,0-.11-1.35,7.49,7.49,0,0,0-.33-1.43,3,3,0,0,0-.66-1.14,1.45,1.45,0,0,0-1.1-.47,3.4,3.4,0,0,0-.73.11,2.2,2.2,0,0,0-.87.47,3.27,3.27,0,0,0-.77,1,3.56,3.56,0,0,0-.33,1.65,17.27,17.27,0,0,0,1.39,6.4c.92,2.32,2,4.77,3.07,7.36s2.15,5.31,3.08,8.16a28.54,28.54,0,0,1,1.39,8.82c0,3.61-.91,6.31-2.71,8.09A9,9,0,0,1,182,62.36a4.9,4.9,0,0,1-3.62-1.28,8,8,0,0,1-1.9-3.15,14.47,14.47,0,0,1-.73-3.92c-.08-1.36-.11-2.56-.11-3.58a.58.58,0,0,1,.36-.55,1.85,1.85,0,0,1,.81-.18,2.28,2.28,0,0,1,.8.14.52.52,0,0,1,.37.51c0,.3,0,.92.11,1.87a20.17,20.17,0,0,0,.47,3,10.11,10.11,0,0,0,1.1,2.82,2.27,2.27,0,0,0,2.05,1.24,3.25,3.25,0,0,0,1-.18,2.74,2.74,0,0,0,1.1-.77,4.53,4.53,0,0,0,.91-1.75,10.68,10.68,0,0,0,.37-3.15A23.92,23.92,0,0,0,183.51,45c-1-2.76-2.16-5.42-3.4-8s-2.38-5-3.41-7.36a16.4,16.4,0,0,1-1.53-6.51,10.77,10.77,0,0,1,.36-2.49,8.46,8.46,0,0,1,1.36-2.85,8,8,0,0,1,2.74-2.35,9.56,9.56,0,0,1,4.54-.95,4.79,4.79,0,0,1,3.15.92,5.53,5.53,0,0,1,1.61,2.16,8.36,8.36,0,0,1,.62,2.48C189.62,20.88,189.66,21.52,189.66,22Z"/><path class="cls-1" d="M222.89,44.72a.75.75,0,0,1,.73-.51,1,1,0,0,1,.66.29.76.76,0,0,1,.14.8q-2,5.43-4.09,9.74-1.19,2.57-2,4.06c-.56,1-1.13,1.93-1.72,2.78A12,12,0,0,1,214.84,64a2.6,2.6,0,0,1-1.69.8c-1.71,0-3.08-1.09-4.13-3.29S207.64,55.8,208,51c.15-1.41.38-2.94.7-4.57s.62-3.16.91-4.58.52-2.59.7-3.55.18-1.42,0-1.42c-.44,0-1,.47-1.79,1.57a26.57,26.57,0,0,0-2.34,4.39A54.48,54.48,0,0,0,204,49.07a52.9,52.9,0,0,0-1.65,7.14c0,.54,0,.95,0,1.24a5.88,5.88,0,0,0,.11.81.83.83,0,0,1-.41.88,2.13,2.13,0,0,1-1.13.29,2.6,2.6,0,0,1-1.21-.33,1.75,1.75,0,0,1-.84-1.13,33.27,33.27,0,0,1-.95-5.35c-.25-2.19-.4-4.58-.48-7.17s-.08-5.23,0-7.94.14-5.27.29-7.68.33-4.57.55-6.45a31,31,0,0,1,.69-4.13,1.73,1.73,0,0,1,1.36-1,10,10,0,0,1,1.79-.18,4.27,4.27,0,0,1,2.31.73,1.5,1.5,0,0,1,.62,1.32c0,.14,0,.57-.11,1.28s-.17,1.57-.29,2.6-.26,2.17-.41,3.44S204,30,203.86,31.4c-.29,3.37-.54,6.28-.73,8.74s-.35,4.63-.44,6.48c.58-1.71,1.23-3.35,1.94-4.94a28.49,28.49,0,0,1,2.27-4.21,11.77,11.77,0,0,1,2.63-2.92,4.75,4.75,0,0,1,3-1.1,3.54,3.54,0,0,1,2.9,1.64,6.15,6.15,0,0,1,1.2,3.7,15.1,15.1,0,0,1-.36,2.93c-.25,1.17-.53,2.52-.84,4.06s-.64,3.23-1,5.09-.57,3.85-.76,6a6,6,0,0,0,.18,2.71,1,1,0,0,0,.84.58,1.56,1.56,0,0,0,1-.66A12,12,0,0,0,217,57.75q.66-1.09,1.35-2.49c.47-.93.92-1.88,1.36-2.86Q221.2,49,222.89,44.72Z"/><path class="cls-1" d="M251.65,44.72a.75.75,0,0,1,.73-.51.91.91,0,0,1,.66.29.77.77,0,0,1,.15.8q-1.55,4.32-3,7.62c-.59,1.36-1.09,2.45-1.5,3.25a20.91,20.91,0,0,1-1.28,2.16,11.38,11.38,0,0,1-1.32,1.61,1.86,1.86,0,0,1-1.25.66,4.17,4.17,0,0,1-2.92-1.06A8.14,8.14,0,0,1,240,56.91a12.62,12.62,0,0,1-1-3.44,21.59,21.59,0,0,1-.29-3.41c0-.53,0-1.07,0-1.61s.06-1.1.11-1.68c-.58,1.37-1.24,2.79-2,4.28a35.09,35.09,0,0,1-2.31,4,18.22,18.22,0,0,1-2.42,3,3.47,3.47,0,0,1-2.37,1.17A4.9,4.9,0,0,1,225.34,57a11.28,11.28,0,0,1-1.43-6.15,13.83,13.83,0,0,1,.81-4.54A14.14,14.14,0,0,1,227,42.12a12.16,12.16,0,0,1,3.54-3.07,9.09,9.09,0,0,1,4.65-1.21,10.39,10.39,0,0,1,3.08.37,4.91,4.91,0,0,1,1.83.95,7.69,7.69,0,0,0,.29-.74,1.29,1.29,0,0,1,.73-.62,3.3,3.3,0,0,1,1.1-.18,6.4,6.4,0,0,1,2.63.59c.88.39,1.27.83,1.17,1.31a43.48,43.48,0,0,0-.95,6.33c-.14,2.08-.19,3.93-.14,5.57a27,27,0,0,0,.33,3.95c.17,1,.33,1.5.47,1.5.39,0,.93-.63,1.61-1.9s1.34-2.66,2-4.18C250,49,250.82,47,251.65,44.72ZM231,55.33a2.14,2.14,0,0,0,1.46-.88,13.8,13.8,0,0,0,1.65-2.27,32.9,32.9,0,0,0,1.65-3.11c.53-1.14,1-2.28,1.54-3.4,0-.39,0-.85-.08-1.39a15.62,15.62,0,0,0-.22-1.57,3.94,3.94,0,0,0-.47-1.32,1,1,0,0,0-.85-.55,2.81,2.81,0,0,0-1.64.91,9.93,9.93,0,0,0-1.87,2.57,20.9,20.9,0,0,0-1.54,3.88,17.69,17.69,0,0,0-.65,4.94,3.21,3.21,0,0,0,.33,1.72A.89.89,0,0,0,231,55.33Z"/><path class="cls-1" d="M281.44,40.47c.73,0,1.07.29,1,.85a1.13,1.13,0,0,1-.95,1.06,10.48,10.48,0,0,1-1.5.4l-1.9.37-1.83.32a8,8,0,0,1-1.21.15c.05.44.11,1.09.18,1.94s.11,2,.11,3.55a21.76,21.76,0,0,1-.77,6.19,15.5,15.5,0,0,1-1.9,4.28,8.31,8.31,0,0,1-2.45,2.49,4.77,4.77,0,0,1-2.42.8,3.13,3.13,0,0,1-3-1.65,10.86,10.86,0,0,1-1.24-3.62,20.17,20.17,0,0,1-.3-3.66c0-1.12,0-1.68-.11-1.68s-.33.36-.69,1.1a23.16,23.16,0,0,1-1.43,2.41,12.58,12.58,0,0,1-2,2.38,3.65,3.65,0,0,1-2.49,1.06,2.06,2.06,0,0,1-1.39-.51,4.42,4.42,0,0,1-1-1.28,7.92,7.92,0,0,1-.62-1.65,7.25,7.25,0,0,1-.22-1.68,50.64,50.64,0,0,1,.3-5.16q.28-2.9.69-5.49c.27-1.73.56-3.23.88-4.5a6.74,6.74,0,0,1,.77-2.2,1.77,1.77,0,0,1,1.1-.22,6.66,6.66,0,0,1,1.31.15,8.61,8.61,0,0,1,1.39.4,4.74,4.74,0,0,1,1.14.62,1,1,0,0,1,.47.73c0,.25-.06.84-.18,1.76s-.27,2-.44,3.22-.34,2.52-.51,3.88-.33,2.62-.48,3.77-.25,2.09-.33,2.82a3.06,3.06,0,0,0,0,1.1c.09,0,.4-.43.91-1.29s1.07-1.81,1.69-2.89,1.19-2.08,1.75-3a7.61,7.61,0,0,1,1.14-1.65c.14-.24.58-.37,1.31-.37a4.81,4.81,0,0,1,1.25.19,2.85,2.85,0,0,1,1.1.55,5.37,5.37,0,0,1,.25,2.52c0,1.49-.06,3.09-.11,4.79s-.08,3.26-.11,4.65.11,2.09.4,2.09a2,2,0,0,0,1.07-.62,6.63,6.63,0,0,0,1.35-2,17.14,17.14,0,0,0,1.17-3.48,22.17,22.17,0,0,0,.51-5.12,26.55,26.55,0,0,0-.25-4.24c-.17-1-.28-1.74-.33-2.27s.29-.81,1.17-.81a10.63,10.63,0,0,0,1.65-.18c.7-.12,1.43-.27,2.19-.44l2.2-.48A14,14,0,0,0,281.44,40.47Z"/><path class="cls-1" d="M306.18,46.15a1.64,1.64,0,0,1,.62,1.28,1.06,1.06,0,0,1-.77,1.13,20.28,20.28,0,0,1-2.82.26c-1.49.07-3.21.11-5.16.11-1.41,0-2.87,0-4.35,0s-2.87-.06-4.14-.11-2.35-.11-3.26-.18a7.38,7.38,0,0,1-1.72-.26c-.19-.1-.33-.4-.4-.91s0-.82.26-.92a10.1,10.1,0,0,1,1.9-.4c.88-.12,1.92-.22,3.11-.29s2.49-.14,3.88-.19,2.77-.07,4.14-.07c1.85,0,3.57,0,5.16.11A14.73,14.73,0,0,1,306.18,46.15Z"/><path class="cls-1" d="M331.57,16.1a1.1,1.1,0,0,1,1,.29,1.25,1.25,0,0,1,.33.85,1.47,1.47,0,0,1-.29.87,1,1,0,0,1-.88.41c-2.39.19-4.57.41-6.52.66s-3.51.46-4.68.65c0,.49,0,1.46-.07,2.9s-.11,3.17-.19,5.19-.17,4.22-.29,6.59-.23,4.77-.33,7.21c1.9-.34,3.47-.57,4.69-.7s2.17-.23,2.85-.33h.15a1,1,0,0,1,.87.37,1.15,1.15,0,0,1,.26.84,1.62,1.62,0,0,1-.33.88.92.92,0,0,1-.8.4c-2.15.15-3.83.32-5.05.51s-2.15.37-2.78.52q-.15,3.15-.26,6c-.07,1.93-.15,3.65-.22,5.17s-.14,2.74-.18,3.69-.08,1.5-.08,1.65a.63.63,0,0,1-.44.62,2.66,2.66,0,0,1-1,.18,5,5,0,0,1-1.76-.33c-.58-.22-.9-.5-1-.84-.39-2.93-.67-6-.84-9.11s-.26-6.25-.26-9.3.08-6,.22-8.74.32-5.24.52-7.36.39-3.81.58-5.08a8.09,8.09,0,0,1,.44-2.05,2.82,2.82,0,0,1,1.83-.66,1.09,1.09,0,0,1,.51-.37c1.27-.24,2.64-.45,4.1-.62l4.21-.48,3.55-.36C330.47,16.15,331.18,16.1,331.57,16.1Z"/><path class="cls-1" d="M358,44.72a.75.75,0,0,1,.73-.51.91.91,0,0,1,.66.29.75.75,0,0,1,.15.8c-1,2.88-2,5.42-3,7.62-.59,1.36-1.09,2.45-1.5,3.25a19.27,19.27,0,0,1-1.28,2.16,11.38,11.38,0,0,1-1.32,1.61,1.84,1.84,0,0,1-1.24.66,4.17,4.17,0,0,1-2.93-1.06,8.29,8.29,0,0,1-1.91-2.63,13,13,0,0,1-1-3.44,22.85,22.85,0,0,1-.29-3.41c0-.53,0-1.07,0-1.61s.07-1.1.11-1.68c-.58,1.37-1.24,2.79-2,4.28a33.67,33.67,0,0,1-2.31,4,18.74,18.74,0,0,1-2.41,3,3.51,3.51,0,0,1-2.38,1.17A4.91,4.91,0,0,1,331.68,57a11.28,11.28,0,0,1-1.43-6.15,13.83,13.83,0,0,1,.81-4.54,14.37,14.37,0,0,1,2.27-4.21,12.2,12.2,0,0,1,3.55-3.07,9.05,9.05,0,0,1,4.64-1.21,10.39,10.39,0,0,1,3.08.37,4.91,4.91,0,0,1,1.83.95,5.73,5.73,0,0,0,.29-.74,1.29,1.29,0,0,1,.73-.62,3.3,3.3,0,0,1,1.1-.18,6.48,6.48,0,0,1,2.64.59c.87.39,1.26.83,1.17,1.31a40.91,40.91,0,0,0-.95,6.33,54.86,54.86,0,0,0-.15,5.57,30.06,30.06,0,0,0,.33,3.95c.17,1,.33,1.5.47,1.5.39,0,.93-.63,1.61-1.9a44.21,44.21,0,0,0,2-4.18C356.38,49,357.16,47,358,44.72ZM337.35,55.33a2.18,2.18,0,0,0,1.47-.88,14.41,14.41,0,0,0,1.64-2.27,32.9,32.9,0,0,0,1.65-3.11c.54-1.14,1.05-2.28,1.54-3.4,0-.39,0-.85-.08-1.39a15.62,15.62,0,0,0-.22-1.57,3.74,3.74,0,0,0-.47-1.32,1,1,0,0,0-.84-.55,2.8,2.8,0,0,0-1.65.91,9.93,9.93,0,0,0-1.87,2.57A20.92,20.92,0,0,0,337,48.2a17.32,17.32,0,0,0-.66,4.94,3.21,3.21,0,0,0,.33,1.72A.9.9,0,0,0,337.35,55.33Z"/><path class="cls-1" d="M388.37,45.16c.39,0,.64.23.76.69s-.08.77-.62.92q-2.34.73-4.61,1.57c-1.51.56-3,1.16-4.39,1.8A25.16,25.16,0,0,1,377.83,55a19.81,19.81,0,0,1-2.57,4.13A11.69,11.69,0,0,1,371.93,62,8,8,0,0,1,368,63a2.67,2.67,0,0,1-2.49-1,3.82,3.82,0,0,1-.59-1.94,6.71,6.71,0,0,1,2.45-4.87,26.64,26.64,0,0,1,6-4.13,34.11,34.11,0,0,0,.8-7.25,16.84,16.84,0,0,0-.44-4.54c-.29-1-.53-1.46-.73-1.46a2.8,2.8,0,0,0-2.05,1.24,13.2,13.2,0,0,0-1.9,3.48,47,47,0,0,0-1.68,5.23c-.54,2-1,4.18-1.39,6.52-.15,1.61-.22,2.46-.22,2.56a.6.6,0,0,1-.41.55,2.35,2.35,0,0,1-1,.18,5.28,5.28,0,0,1-1.8-.33c-.61-.22-.94-.47-1-.77a80.76,80.76,0,0,1-.91-8.27q-.25-4.32-.22-8.49c0-2.78.1-5.43.22-7.94s.28-4.73.48-6.66.39-3.46.58-4.61a7.2,7.2,0,0,1,.44-1.87,3.5,3.5,0,0,1,1.1-.47,5.17,5.17,0,0,1,1.17-.11,9.09,9.09,0,0,1,1.9.36c.64.2,1,.49,1.1.88a18.78,18.78,0,0,1,0,2.71c-.07,1.66-.16,3.73-.25,6.22s-.22,5.21-.37,8.16-.29,5.8-.44,8.53a30.3,30.3,0,0,1,1.36-3.73,18.11,18.11,0,0,1,1.68-3.08,8.17,8.17,0,0,1,2-2.08,4,4,0,0,1,2.34-.77,5.73,5.73,0,0,1,4.73,2.45,10.57,10.57,0,0,1,1.86,6.55,16.47,16.47,0,0,1-.11,1.87c-.07.61-.16,1.23-.25,1.86.29-.09.84-.3,1.64-.62s1.67-.65,2.6-1,1.81-.63,2.64-.88A7.65,7.65,0,0,1,388.37,45.16ZM367.73,61c.87,0,1.75-.72,2.63-2.16a24.39,24.39,0,0,0,2.34-5.45,21.14,21.14,0,0,0-4.28,3.22,4.67,4.67,0,0,0-1.57,3.22c0,.49.09.8.29,1A.94.94,0,0,0,367.73,61Z"/><path class="cls-1" d="M403.74,44.72a.75.75,0,0,1,.73-.51,1,1,0,0,1,.66.29.76.76,0,0,1,.14.8,71.49,71.49,0,0,1-3.29,7c-.68,1.22-1.28,2.19-1.79,2.93a13.56,13.56,0,0,1-1.69,2,11.08,11.08,0,0,1-1.86,1.47,3.75,3.75,0,0,1-2,.58,7.92,7.92,0,0,1-3.29-.69,8.84,8.84,0,0,1-2.75-2,9.15,9.15,0,0,1-1.9-3.15,12,12,0,0,1-.7-4.21,17.13,17.13,0,0,1,.62-4.57,15.27,15.27,0,0,1,1.69-4,9.28,9.28,0,0,1,2.56-2.78,5.53,5.53,0,0,1,3.26-1.07,8,8,0,0,1,1.28.15,6.47,6.47,0,0,1,1.68.55,4.33,4.33,0,0,1,1.47,1.17,3.11,3.11,0,0,1,.62,2,5.64,5.64,0,0,1-2,4.1,9.53,9.53,0,0,1-4.68,2.49,6.45,6.45,0,0,0-.08,1.17q0,3.81,1.18,5.45t2,1.65a4,4,0,0,0,2.9-1.68,24.9,24.9,0,0,0,2.59-3.73A59,59,0,0,0,403.74,44.72Zm-8.64-6.08q-.37,0-1.17,2a21.92,21.92,0,0,0-1.25,4.83,11.26,11.26,0,0,0,2.09-2.23,4.44,4.44,0,0,0,1-2.6,6.08,6.08,0,0,0-.15-1.28C395.51,38.88,395.34,38.64,395.1,38.64Z"/><path class="cls-1" d="M423.13,44.72c.05-.34.29-.51.73-.51a.91.91,0,0,1,.66.29.77.77,0,0,1,.15.8q-1.91,4.85-3.81,8.57c-.73,1.51-1.36,2.71-1.9,3.58a28.3,28.3,0,0,1-1.65,2.42,12.67,12.67,0,0,1-1.68,1.83,2.53,2.53,0,0,1-1.65.73,4.38,4.38,0,0,1-3.69-1.79,8,8,0,0,1-1.36-4.94,40.36,40.36,0,0,1,.26-4.43c.17-1.54.34-3,.51-4.43s.34-2.73.51-4a22.53,22.53,0,0,0,.26-2.93,1.66,1.66,0,0,0-.18-.91,1.36,1.36,0,0,0-.48-.41c-.05.25-.17.76-.37,1.54s-.41,1.6-.65,2.45A18.43,18.43,0,0,1,408,44.9c-.29.66-.59,1-.88,1a.84.84,0,0,1-.66-.37.8.8,0,0,1-.14-.8,49,49,0,0,0,1.75-6.22,1.55,1.55,0,0,1-1.53-.73,2.39,2.39,0,0,1-.19-1.61,3.45,3.45,0,0,1,.85-1.61,2,2,0,0,1,1.53-.74,1.48,1.48,0,0,1,1.39.77,3.91,3.91,0,0,1,0,2.67c.78,0,1.53,0,2.24.11a4.85,4.85,0,0,1,1.83.55,3.46,3.46,0,0,1,1.24,1.25,4.43,4.43,0,0,1,.48,2.27c0,.39-.07,1.08-.19,2.08s-.25,2.15-.4,3.44-.29,2.64-.44,4-.26,2.66-.33,3.8a15.42,15.42,0,0,0,0,2.86c.1.75.29,1.13.58,1.13a1.59,1.59,0,0,0,1-.62,10.67,10.67,0,0,0,1.21-1.61c.41-.66.85-1.4,1.31-2.23s.92-1.69,1.36-2.56C421,49.7,422.06,47.35,423.13,44.72Z"/><path class="cls-1" d="M128.44,70.34l2.25,5.77L133,69.93l2.25,6.18,2.38-5.77h1.41l-3.85,9.17L133,73.4l-2.31,6.12L127,70.34Z"/><path class="cls-1" d="M146.05,71.57h-3.46v2.07H146v1.22h-3.36v2.88h3.46V79h-4.76V70.34h4.76Z"/><path class="cls-1" d="M148.9,79V70.34h1.29a5.57,5.57,0,0,1,1.38.14,2.1,2.1,0,0,1,.88.45,2.48,2.48,0,0,1,.58.82,2.58,2.58,0,0,1,.21,1,2,2,0,0,1-.71,1.57,2.08,2.08,0,0,1,1.09.82,2.27,2.27,0,0,1,.4,1.35,2.45,2.45,0,0,1-1.68,2.3,5.5,5.5,0,0,1-1.47.17Zm1.3-4.92h.41a1.51,1.51,0,0,0,1.06-.32,1.24,1.24,0,0,0,.34-1,1.21,1.21,0,0,0-.35-.93,1.43,1.43,0,0,0-1-.31h-.46Zm0,3.69h.8a2,2,0,0,0,1.3-.34,1.27,1.27,0,0,0,0-1.89,2.19,2.19,0,0,0-1.46-.37h-.66Z"/><path class="cls-1" d="M161.48,79V70.34h1.81a6.6,6.6,0,0,1,2.05.26,3.8,3.8,0,0,1,1.47.86,4.46,4.46,0,0,1-.06,6.41,4,4,0,0,1-1.46.86,6.68,6.68,0,0,1-2,.24Zm1.3-1.23h.58a5,5,0,0,0,1.46-.18,3,3,0,0,0,2-2.9,3,3,0,0,0-1-2.31,3.62,3.62,0,0,0-2.52-.78h-.58Z"/><path class="cls-1" d="M175.68,71.57h-3.46v2.07h3.36v1.22h-3.36v2.88h3.46V79h-4.76V70.34h4.76Z"/><path class="cls-1" d="M183.41,71.63l-1.06.62a1.8,1.8,0,0,0-.56-.67,1.42,1.42,0,0,0-.72-.17,1.36,1.36,0,0,0-.9.3,1,1,0,0,0-.36.76c0,.42.32.76.94,1l.86.35a3.68,3.68,0,0,1,1.54,1,2.33,2.33,0,0,1,.48,1.5,2.62,2.62,0,0,1-.79,2,2.71,2.71,0,0,1-2,.78,2.68,2.68,0,0,1-1.86-.66,3.07,3.07,0,0,1-.9-1.87l1.32-.29a2.42,2.42,0,0,0,.31,1,1.49,1.49,0,0,0,2.19.15,1.41,1.41,0,0,0,.4-1,1.39,1.39,0,0,0-.07-.46,1.22,1.22,0,0,0-.22-.38,1.56,1.56,0,0,0-.38-.33,3.63,3.63,0,0,0-.56-.29l-.83-.35a2.4,2.4,0,0,1-1.77-2.19,2.07,2.07,0,0,1,.74-1.62,2.69,2.69,0,0,1,1.85-.66A2.58,2.58,0,0,1,183.41,71.63Z"/><path class="cls-1" d="M187.65,70.34V79h-1.31V70.34Z"/><path class="cls-1" d="M195.29,74.48h3.57v.28a6,6,0,0,1-.23,1.72,3.7,3.7,0,0,1-.76,1.3,3.89,3.89,0,0,1-3.05,1.35,4.2,4.2,0,0,1-3.1-1.31,4.49,4.49,0,0,1,3.22-7.64,4.27,4.27,0,0,1,1.88.41,5.47,5.47,0,0,1,1.65,1.34l-.93.89a3.16,3.16,0,0,0-4.88-.47,3.17,3.17,0,0,0-.92,2.32,3.22,3.22,0,0,0,3.12,3.24,2.57,2.57,0,0,0,1.73-.65,2.24,2.24,0,0,0,.85-1.56h-2.15Z"/><path class="cls-1" d="M201.64,79V69.76l6.28,6.58v-6h1.31v9.15l-6.29-6.56v6Z"/><path class="cls-1" d="M217.19,71.57h-3.45v2.07h3.35v1.22h-3.35v2.88h3.45V79h-4.75V70.34h4.75Z"/><path class="cls-1" d="M223,75.29,225.63,79H224l-2.46-3.53h-.23V79h-1.3V70.34h1.52A3.81,3.81,0,0,1,224,71a2.33,2.33,0,0,1,.84,1.88,2.47,2.47,0,0,1-.53,1.58A2.32,2.32,0,0,1,223,75.29Zm-1.62-1h.41c1.23,0,1.85-.47,1.85-1.41s-.6-1.32-1.8-1.32h-.46Z"/><path class="cls-1" d="M236.56,69.44l1,.46-4.94,11.42-1-.46Z"/><path class="cls-1" d="M243.63,69.44l1,.46-4.94,11.42-1-.46Z"/><path class="cls-1" d="M251.56,79V69.76l6.28,6.58v-6h1.3v9.15l-6.28-6.56v6Z"/><path class="cls-1" d="M267.11,71.57h-3.46v2.07H267v1.22h-3.36v2.88h3.46V79h-4.76V70.34h4.76Z"/><path class="cls-1" d="M270.39,70.34l2.24,5.77L275,69.93l2.24,6.18,2.39-5.77H281l-3.85,9.17L275,73.4l-2.31,6.12L269,70.34Z"/><path class="cls-1" d="M289.65,75.24l-2.81-4.9h1.49l2,3.45,2-3.45h1.5L291,75.24V79h-1.3Z"/><path class="cls-1" d="M295.05,74.62a4.21,4.21,0,0,1,1.33-3.13,4.41,4.41,0,0,1,3.2-1.31,4.51,4.51,0,0,1,4.48,4.49,4.21,4.21,0,0,1-1.33,3.15,4.56,4.56,0,0,1-6.22.15A4.26,4.26,0,0,1,295.05,74.62Zm1.31,0a3.23,3.23,0,0,0,3.17,3.28,3.15,3.15,0,0,0,2.29-.94,3.36,3.36,0,0,0,0-4.63,3.24,3.24,0,0,0-4.54,0A3.11,3.11,0,0,0,296.36,74.63Z"/><path class="cls-1" d="M309.76,75.29,312.43,79h-1.59l-2.46-3.53h-.24V79h-1.3V70.34h1.53a3.77,3.77,0,0,1,2.46.65,2.33,2.33,0,0,1,.84,1.88,2.46,2.46,0,0,1-.52,1.58A2.34,2.34,0,0,1,309.76,75.29Zm-1.62-1h.42c1.23,0,1.84-.47,1.84-1.41s-.6-1.32-1.79-1.32h-.47Z"/><path class="cls-1" d="M316.17,73.78l3.36-3.44h1.73l-3.89,3.91L321.29,79h-1.75l-3.1-3.84-.27.27V79h-1.3V70.34h1.3Z"/><path class="cls-1" d="M334.64,70.81v1.54a3.64,3.64,0,0,0-2.34-.94,3,3,0,0,0-2.24,1,3.21,3.21,0,0,0-.91,2.32,3.13,3.13,0,0,0,.91,2.29,3,3,0,0,0,2.25.94,2.73,2.73,0,0,0,1.16-.23,2.8,2.8,0,0,0,.56-.3c.19-.13.39-.28.61-.46v1.57a4.73,4.73,0,0,1-2.35.63,4.32,4.32,0,0,1-3.15-1.29,4.26,4.26,0,0,1-1.31-3.14,4.46,4.46,0,0,1,1.09-2.93,4.33,4.33,0,0,1,3.47-1.58A4.46,4.46,0,0,1,334.64,70.81Z"/><path class="cls-1" d="M338.72,70.34V79h-1.3V70.34Z"/><path class="cls-1" d="M344.32,71.57V79H343v-7.4h-2V70.34h5.26v1.23Z"/><path class="cls-1" d="M350.9,75.24l-2.82-4.9h1.5l2,3.45,2-3.45H355l-2.82,4.9V79h-1.3Z"/></svg>